# MagicaVoxel @ Ephtracy

# group
o 

# material
mtllib 방울.mtl
usemtl palette

# normals
vn -1 0 0
vn 1 0 0
vn 0 0 1
vn 0 0 -1
vn 0 -1 0
vn 0 1 0

# texcoords
vt 0.201172 0.5
vt 0.205078 0.5
vt 0.208984 0.5
vt 0.306641 0.5

# verts
v -0.4 0.3 0.2
v -0.4 0.3 -0.2
v -0.4 0.4 0.3
v -0.4 0.4 0.2
v -0.4 0.4 -0.2
v -0.4 0.4 -0.3
v -0.4 0.5 0.4
v -0.4 0.5 0.3
v -0.4 0.5 -0.3
v -0.4 0.5 -0.4
v -0.4 0.8 0.4
v -0.4 0.8 0.3
v -0.4 0.8 -0.3
v -0.4 0.8 -0.4
v -0.4 0.9 0.3
v -0.4 0.9 0.2
v -0.4 0.9 -0.2
v -0.4 0.9 -0.3
v -0.4 1 0.2
v -0.4 1 -0.2
v -0.3 0.3 0.3
v -0.3 0.3 0.2
v -0.3 0.3 -0.2
v -0.3 0.3 -0.3
v -0.3 0.4 0.4
v -0.3 0.4 0.3
v -0.3 0.4 0.2
v -0.3 0.4 -0.2
v -0.3 0.4 -0.3
v -0.3 0.4 -0.4
v -0.3 0.5 0.4
v -0.3 0.5 0.3
v -0.3 0.5 -0.3
v -0.3 0.5 -0.4
v -0.3 0.8 0.4
v -0.3 0.8 0.3
v -0.3 0.8 -0.3
v -0.3 0.8 -0.4
v -0.3 0.9 0.4
v -0.3 0.9 0.3
v -0.3 0.9 0.2
v -0.3 0.9 -0.2
v -0.3 0.9 -0.3
v -0.3 0.9 -0.4
v -0.3 1 0.3
v -0.3 1 0.2
v -0.3 1 -0.2
v -0.3 1 -0.3
v -0.3 1.1 0.2
v -0.3 1.1 -0.2
v -0.2 0.3 0.4
v -0.2 0.3 0.3
v -0.2 0.3 -0.3
v -0.2 0.3 -0.4
v -0.2 0.4 0.4
v -0.2 0.4 0.3
v -0.2 0.4 -0.3
v -0.2 0.4 -0.4
v -0.2 0.9 0.4
v -0.2 0.9 0.3
v -0.2 0.9 -0.3
v -0.2 0.9 -0.4
v -0.2 1 0.4
v -0.2 1 0.3
v -0.2 1 0.2
v -0.2 1 -0.2
v -0.2 1 -0.3
v -0.2 1 -0.4
v -0.2 1.1 0.3
v -0.2 1.1 0.2
v -0.2 1.1 -0.2
v -0.2 1.1 -0.3
v 0 0.3 0.4
v 0 0.3 0.3
v 0 0.5 0.4
v 0 0.5 0.3
v 0.1 0.5 0.4
v 0.1 0.5 0.3
v 0.1 0.6 0.3
v 0.1 0.7 0.4
v 0.1 0.7 0.3
v -0.1 0.3 0.4
v -0.1 0.3 0.3
v -0.1 0.7 0.4
v -0.1 0.7 0.3
v 0.2 0.3 0.4
v 0.2 0.3 0.3
v 0.2 0.3 -0.3
v 0.2 0.3 -0.4
v 0.2 0.4 0.4
v 0.2 0.4 0.3
v 0.2 0.4 -0.3
v 0.2 0.4 -0.4
v 0.2 0.9 0.4
v 0.2 0.9 0.3
v 0.2 0.9 -0.3
v 0.2 0.9 -0.4
v 0.2 1 0.4
v 0.2 1 0.3
v 0.2 1 0.2
v 0.2 1 -0.2
v 0.2 1 -0.3
v 0.2 1 -0.4
v 0.2 1.1 0.3
v 0.2 1.1 0.2
v 0.2 1.1 -0.2
v 0.2 1.1 -0.3
v 0.3 0.3 0.3
v 0.3 0.3 0.2
v 0.3 0.3 -0.2
v 0.3 0.3 -0.3
v 0.3 0.4 0.4
v 0.3 0.4 0.3
v 0.3 0.4 0.2
v 0.3 0.4 -0.2
v 0.3 0.4 -0.3
v 0.3 0.4 -0.4
v 0.3 0.5 0.4
v 0.3 0.5 0.3
v 0.3 0.5 -0.3
v 0.3 0.5 -0.4
v 0.3 0.8 0.4
v 0.3 0.8 0.3
v 0.3 0.8 -0.3
v 0.3 0.8 -0.4
v 0.3 0.9 0.4
v 0.3 0.9 0.3
v 0.3 0.9 0.2
v 0.3 0.9 -0.2
v 0.3 0.9 -0.3
v 0.3 0.9 -0.4
v 0.3 1 0.3
v 0.3 1 0.2
v 0.3 1 -0.2
v 0.3 1 -0.3
v 0.3 1.1 0.2
v 0.3 1.1 -0.2
v 0.4 0.3 0.2
v 0.4 0.3 -0.2
v 0.4 0.4 0.3
v 0.4 0.4 0.2
v 0.4 0.4 -0.2
v 0.4 0.4 -0.3
v 0.4 0.5 0.4
v 0.4 0.5 0.3
v 0.4 0.5 -0.3
v 0.4 0.5 -0.4
v 0.4 0.8 0.4
v 0.4 0.8 0.3
v 0.4 0.8 -0.3
v 0.4 0.8 -0.4
v 0.4 0.9 0.3
v 0.4 0.9 0.2
v 0.4 0.9 -0.2
v 0.4 0.9 -0.3
v 0.4 1 0.2
v 0.4 1 -0.2
v -0.4 0.5 0.4
v -0.4 0.8 0.4
v -0.3 0.4 0.4
v -0.3 0.5 0.4
v -0.3 0.8 0.4
v -0.3 0.9 0.4
v -0.2 0.3 0.4
v -0.2 0.4 0.4
v -0.2 0.9 0.4
v -0.2 1 0.4
v -0.1 0.3 0.4
v -0.1 0.7 0.4
v 0 0.3 0.4
v 0 0.5 0.4
v 0.1 0.5 0.4
v 0.1 0.7 0.4
v 0.2 0.3 0.4
v 0.2 0.4 0.4
v 0.2 0.9 0.4
v 0.2 1 0.4
v 0.3 0.4 0.4
v 0.3 0.5 0.4
v 0.3 0.8 0.4
v 0.3 0.9 0.4
v 0.4 0.5 0.4
v 0.4 0.8 0.4
v -0.4 0.4 0.3
v -0.4 0.5 0.3
v -0.4 0.8 0.3
v -0.4 0.9 0.3
v -0.3 0.3 0.3
v -0.3 0.4 0.3
v -0.3 0.5 0.3
v -0.3 0.8 0.3
v -0.3 0.9 0.3
v -0.3 1 0.3
v -0.2 0.3 0.3
v -0.2 0.4 0.3
v -0.2 0.9 0.3
v -0.2 1 0.3
v -0.2 1.1 0.3
v -0.1 0.3 0.3
v -0.1 0.7 0.3
v 0 0.3 0.3
v 0 0.5 0.3
v 0 0.6 0.3
v 0.1 0.5 0.3
v 0.1 0.6 0.3
v 0.1 0.7 0.3
v 0.2 0.3 0.3
v 0.2 0.4 0.3
v 0.2 0.9 0.3
v 0.2 1 0.3
v 0.2 1.1 0.3
v 0.3 0.3 0.3
v 0.3 0.4 0.3
v 0.3 0.5 0.3
v 0.3 0.8 0.3
v 0.3 0.9 0.3
v 0.3 1 0.3
v 0.4 0.4 0.3
v 0.4 0.5 0.3
v 0.4 0.8 0.3
v 0.4 0.9 0.3
v -0.4 0.3 0.2
v -0.4 0.4 0.2
v -0.4 0.9 0.2
v -0.4 1 0.2
v -0.3 0.3 0.2
v -0.3 0.4 0.2
v -0.3 0.9 0.2
v -0.3 1 0.2
v -0.3 1.1 0.2
v -0.2 1 0.2
v -0.2 1.1 0.2
v 0.2 1 0.2
v 0.2 1.1 0.2
v 0.3 0.3 0.2
v 0.3 0.4 0.2
v 0.3 0.9 0.2
v 0.3 1 0.2
v 0.3 1.1 0.2
v 0.4 0.3 0.2
v 0.4 0.4 0.2
v 0.4 0.9 0.2
v 0.4 1 0.2
v -0.4 0.3 -0.2
v -0.4 0.4 -0.2
v -0.4 0.9 -0.2
v -0.4 1 -0.2
v -0.3 0.3 -0.2
v -0.3 0.4 -0.2
v -0.3 0.9 -0.2
v -0.3 1 -0.2
v -0.3 1.1 -0.2
v -0.2 1 -0.2
v -0.2 1.1 -0.2
v 0.2 1 -0.2
v 0.2 1.1 -0.2
v 0.3 0.3 -0.2
v 0.3 0.4 -0.2
v 0.3 0.9 -0.2
v 0.3 1 -0.2
v 0.3 1.1 -0.2
v 0.4 0.3 -0.2
v 0.4 0.4 -0.2
v 0.4 0.9 -0.2
v 0.4 1 -0.2
v -0.4 0.4 -0.3
v -0.4 0.5 -0.3
v -0.4 0.8 -0.3
v -0.4 0.9 -0.3
v -0.3 0.3 -0.3
v -0.3 0.4 -0.3
v -0.3 0.5 -0.3
v -0.3 0.8 -0.3
v -0.3 0.9 -0.3
v -0.3 1 -0.3
v -0.2 0.3 -0.3
v -0.2 0.4 -0.3
v -0.2 0.9 -0.3
v -0.2 1 -0.3
v -0.2 1.1 -0.3
v 0.2 0.3 -0.3
v 0.2 0.4 -0.3
v 0.2 0.9 -0.3
v 0.2 1 -0.3
v 0.2 1.1 -0.3
v 0.3 0.3 -0.3
v 0.3 0.4 -0.3
v 0.3 0.5 -0.3
v 0.3 0.8 -0.3
v 0.3 0.9 -0.3
v 0.3 1 -0.3
v 0.4 0.4 -0.3
v 0.4 0.5 -0.3
v 0.4 0.8 -0.3
v 0.4 0.9 -0.3
v -0.4 0.5 -0.4
v -0.4 0.8 -0.4
v -0.3 0.4 -0.4
v -0.3 0.5 -0.4
v -0.3 0.8 -0.4
v -0.3 0.9 -0.4
v -0.2 0.3 -0.4
v -0.2 0.4 -0.4
v -0.2 0.9 -0.4
v -0.2 1 -0.4
v 0.2 0.3 -0.4
v 0.2 0.4 -0.4
v 0.2 0.9 -0.4
v 0.2 1 -0.4
v 0.3 0.4 -0.4
v 0.3 0.5 -0.4
v 0.3 0.8 -0.4
v 0.3 0.9 -0.4
v 0.4 0.5 -0.4
v 0.4 0.8 -0.4
v -0.2 0.3 0.4
v -0.1 0.3 0.4
v 0 0.3 0.4
v 0.2 0.3 0.4
v -0.3 0.3 0.3
v -0.2 0.3 0.3
v -0.1 0.3 0.3
v 0 0.3 0.3
v 0.2 0.3 0.3
v 0.3 0.3 0.3
v -0.4 0.3 0.2
v -0.3 0.3 0.2
v -0.1 0.3 0.2
v 0 0.3 0.2
v 0.3 0.3 0.2
v 0.4 0.3 0.2
v -0.4 0.3 -0.2
v -0.3 0.3 -0.2
v 0.3 0.3 -0.2
v 0.4 0.3 -0.2
v -0.3 0.3 -0.3
v -0.2 0.3 -0.3
v 0.2 0.3 -0.3
v 0.3 0.3 -0.3
v -0.2 0.3 -0.4
v 0.2 0.3 -0.4
v -0.3 0.4 0.4
v -0.2 0.4 0.4
v 0.2 0.4 0.4
v 0.3 0.4 0.4
v -0.4 0.4 0.3
v -0.3 0.4 0.3
v -0.2 0.4 0.3
v 0.2 0.4 0.3
v 0.3 0.4 0.3
v 0.4 0.4 0.3
v -0.4 0.4 0.2
v -0.3 0.4 0.2
v 0.3 0.4 0.2
v 0.4 0.4 0.2
v -0.4 0.4 -0.2
v -0.3 0.4 -0.2
v 0.3 0.4 -0.2
v 0.4 0.4 -0.2
v -0.4 0.4 -0.3
v -0.3 0.4 -0.3
v -0.2 0.4 -0.3
v 0.2 0.4 -0.3
v 0.3 0.4 -0.3
v 0.4 0.4 -0.3
v -0.3 0.4 -0.4
v -0.2 0.4 -0.4
v 0.2 0.4 -0.4
v 0.3 0.4 -0.4
v -0.4 0.5 0.4
v -0.3 0.5 0.4
v 0.3 0.5 0.4
v 0.4 0.5 0.4
v -0.4 0.5 0.3
v -0.3 0.5 0.3
v 0.3 0.5 0.3
v 0.4 0.5 0.3
v -0.4 0.5 -0.3
v -0.3 0.5 -0.3
v 0.3 0.5 -0.3
v 0.4 0.5 -0.3
v -0.4 0.5 -0.4
v -0.3 0.5 -0.4
v 0.3 0.5 -0.4
v 0.4 0.5 -0.4
v -0.1 0.7 0.4
v 0.1 0.7 0.4
v -0.1 0.7 0.3
v 0.1 0.7 0.3
v 0 0.5 0.4
v 0.1 0.5 0.4
v 0 0.5 0.3
v 0.1 0.5 0.3
v -0.4 0.8 0.4
v -0.3 0.8 0.4
v 0.3 0.8 0.4
v 0.4 0.8 0.4
v -0.4 0.8 0.3
v -0.3 0.8 0.3
v 0.3 0.8 0.3
v 0.4 0.8 0.3
v -0.4 0.8 -0.3
v -0.3 0.8 -0.3
v 0.3 0.8 -0.3
v 0.4 0.8 -0.3
v -0.4 0.8 -0.4
v -0.3 0.8 -0.4
v 0.3 0.8 -0.4
v 0.4 0.8 -0.4
v -0.3 0.9 0.4
v -0.2 0.9 0.4
v 0.2 0.9 0.4
v 0.3 0.9 0.4
v -0.4 0.9 0.3
v -0.3 0.9 0.3
v -0.2 0.9 0.3
v 0.2 0.9 0.3
v 0.3 0.9 0.3
v 0.4 0.9 0.3
v -0.4 0.9 0.2
v -0.3 0.9 0.2
v 0.3 0.9 0.2
v 0.4 0.9 0.2
v -0.4 0.9 -0.2
v -0.3 0.9 -0.2
v 0.3 0.9 -0.2
v 0.4 0.9 -0.2
v -0.4 0.9 -0.3
v -0.3 0.9 -0.3
v -0.2 0.9 -0.3
v 0.2 0.9 -0.3
v 0.3 0.9 -0.3
v 0.4 0.9 -0.3
v -0.3 0.9 -0.4
v -0.2 0.9 -0.4
v 0.2 0.9 -0.4
v 0.3 0.9 -0.4
v -0.2 1 0.4
v 0.2 1 0.4
v -0.3 1 0.3
v -0.2 1 0.3
v 0.2 1 0.3
v 0.3 1 0.3
v -0.4 1 0.2
v -0.3 1 0.2
v -0.2 1 0.2
v 0.2 1 0.2
v 0.3 1 0.2
v 0.4 1 0.2
v -0.4 1 -0.2
v -0.3 1 -0.2
v -0.2 1 -0.2
v 0.2 1 -0.2
v 0.3 1 -0.2
v 0.4 1 -0.2
v -0.3 1 -0.3
v -0.2 1 -0.3
v 0.2 1 -0.3
v 0.3 1 -0.3
v -0.2 1 -0.4
v 0.2 1 -0.4
v -0.2 1.1 0.3
v 0.2 1.1 0.3
v -0.3 1.1 0.2
v -0.2 1.1 0.2
v 0.2 1.1 0.2
v 0.3 1.1 0.2
v -0.3 1.1 -0.2
v -0.2 1.1 -0.2
v 0.2 1.1 -0.2
v 0.3 1.1 -0.2
v -0.2 1.1 -0.3
v 0.2 1.1 -0.3

# faces
f 4/3/1 2/3/1 1/3/1
f 5/3/1 2/3/1 4/3/1
f 8/3/1 4/3/1 3/3/1
f 8/3/1 6/3/1 5/3/1
f 8/3/1 5/3/1 4/3/1
f 9/3/1 6/3/1 8/3/1
f 11/3/1 8/3/1 7/3/1
f 11/3/1 10/3/1 9/3/1
f 11/3/1 9/3/1 8/3/1
f 12/3/1 10/3/1 11/3/1
f 13/3/1 10/3/1 12/3/1
f 14/3/1 10/3/1 13/3/1
f 15/3/1 13/3/1 12/3/1
f 16/3/1 13/3/1 15/3/1
f 17/3/1 13/3/1 16/3/1
f 18/3/1 13/3/1 17/3/1
f 19/3/1 17/3/1 16/3/1
f 20/3/1 17/3/1 19/3/1
f 26/3/1 22/3/1 21/3/1
f 27/3/1 22/3/1 26/3/1
f 28/3/1 24/3/1 23/3/1
f 29/3/1 24/3/1 28/3/1
f 31/3/1 26/3/1 25/3/1
f 32/3/1 26/3/1 31/3/1
f 33/3/1 30/3/1 29/3/1
f 34/3/1 30/3/1 33/3/1
f 39/3/1 36/3/1 35/3/1
f 40/3/1 36/3/1 39/3/1
f 43/3/1 38/3/1 37/3/1
f 44/3/1 38/3/1 43/3/1
f 45/3/1 41/3/1 40/3/1
f 46/3/1 41/3/1 45/3/1
f 47/3/1 43/3/1 42/3/1
f 48/3/1 43/3/1 47/3/1
f 49/3/1 47/3/1 46/3/1
f 50/3/1 47/3/1 49/3/1
f 55/3/1 52/3/1 51/3/1
f 56/3/1 52/3/1 55/3/1
f 57/3/1 54/3/1 53/3/1
f 58/3/1 54/3/1 57/3/1
f 63/3/1 60/3/1 59/3/1
f 64/3/1 60/3/1 63/3/1
f 67/3/1 62/3/1 61/3/1
f 68/3/1 62/3/1 67/3/1
f 69/3/1 65/3/1 64/3/1
f 70/3/1 65/3/1 69/3/1
f 71/3/1 67/3/1 66/3/1
f 72/3/1 67/3/1 71/3/1
f 75/3/1 74/3/1 73/3/1
f 76/3/1 74/3/1 75/3/1
f 79/3/1 78/3/1 77/3/1
f 80/3/1 79/3/1 77/3/1
f 81/3/1 79/3/1 80/3/1
f 82/3/2 83/3/2 84/3/2
f 84/3/2 83/3/2 85/3/2
f 86/3/2 87/3/2 90/3/2
f 90/3/2 87/3/2 91/3/2
f 88/3/2 89/3/2 92/3/2
f 92/3/2 89/3/2 93/3/2
f 94/3/2 95/3/2 98/3/2
f 98/3/2 95/3/2 99/3/2
f 96/3/2 97/3/2 102/3/2
f 102/3/2 97/3/2 103/3/2
f 99/3/2 100/3/2 104/3/2
f 104/3/2 100/3/2 105/3/2
f 101/3/2 102/3/2 106/3/2
f 106/3/2 102/3/2 107/3/2
f 108/3/2 109/3/2 113/3/2
f 113/3/2 109/3/2 114/3/2
f 110/3/2 111/3/2 115/3/2
f 115/3/2 111/3/2 116/3/2
f 112/3/2 113/3/2 118/3/2
f 118/3/2 113/3/2 119/3/2
f 116/3/2 117/3/2 120/3/2
f 120/3/2 117/3/2 121/3/2
f 122/3/2 123/3/2 126/3/2
f 126/3/2 123/3/2 127/3/2
f 124/3/2 125/3/2 130/3/2
f 130/3/2 125/3/2 131/3/2
f 127/3/2 128/3/2 132/3/2
f 132/3/2 128/3/2 133/3/2
f 129/3/2 130/3/2 134/3/2
f 134/3/2 130/3/2 135/3/2
f 133/3/2 134/3/2 136/3/2
f 136/3/2 134/3/2 137/3/2
f 138/3/2 139/3/2 141/3/2
f 141/3/2 139/3/2 142/3/2
f 140/3/2 141/3/2 145/3/2
f 142/3/2 143/3/2 145/3/2
f 141/3/2 142/3/2 145/3/2
f 145/3/2 143/3/2 146/3/2
f 144/3/2 145/3/2 148/3/2
f 146/3/2 147/3/2 148/3/2
f 145/3/2 146/3/2 148/3/2
f 148/3/2 147/3/2 149/3/2
f 149/3/2 147/3/2 150/3/2
f 150/3/2 147/3/2 151/3/2
f 149/3/2 150/3/2 152/3/2
f 152/3/2 150/3/2 153/3/2
f 153/3/2 150/3/2 154/3/2
f 154/3/2 150/3/2 155/3/2
f 153/3/2 154/3/2 156/3/2
f 156/3/2 154/3/2 157/3/2
f 161/3/3 159/3/3 158/3/3
f 162/3/3 159/3/3 161/3/3
f 165/3/3 161/3/3 160/3/3
f 165/3/3 163/3/3 162/3/3
f 165/3/3 162/3/3 161/3/3
f 166/3/3 163/3/3 165/3/3
f 168/3/3 165/3/3 164/3/3
f 168/3/3 167/3/3 166/3/3
f 168/3/3 166/3/3 165/3/3
f 169/3/3 167/3/3 168/3/3
f 172/3/3 171/3/3 170/3/3
f 173/3/3 167/3/3 169/3/3
f 174/3/3 172/3/3 170/3/3
f 174/3/3 173/3/3 172/3/3
f 175/3/3 173/3/3 174/3/3
f 176/3/3 167/3/3 173/3/3
f 176/3/3 173/3/3 175/3/3
f 177/3/3 167/3/3 176/3/3
f 178/3/3 176/3/3 175/3/3
f 179/3/3 176/3/3 178/3/3
f 180/3/3 176/3/3 179/3/3
f 181/3/3 176/3/3 180/3/3
f 182/3/3 180/3/3 179/3/3
f 183/3/3 180/3/3 182/3/3
f 189/3/3 185/3/3 184/3/3
f 190/3/3 185/3/3 189/3/3
f 191/3/3 187/3/3 186/3/3
f 192/3/3 187/3/3 191/3/3
f 194/3/3 189/3/3 188/3/3
f 195/3/3 189/3/3 194/3/3
f 196/3/3 193/3/3 192/3/3
f 197/3/3 193/3/3 196/3/3
f 201/2/3 200/2/3 199/2/3
f 202/2/3 200/2/3 201/2/3
f 203/2/3 200/2/3 202/2/3
f 204/1/3 203/1/3 202/1/3
f 205/2/3 200/2/3 203/2/3
f 205/1/3 203/1/3 204/1/3
f 206/2/3 200/2/3 205/2/3
f 210/3/3 198/3/3 197/3/3
f 211/3/3 198/3/3 210/3/3
f 212/3/3 208/3/3 207/3/3
f 213/3/3 208/3/3 212/3/3
f 216/3/3 210/3/3 209/3/3
f 217/3/3 210/3/3 216/3/3
f 218/3/3 214/3/3 213/3/3
f 219/3/3 214/3/3 218/3/3
f 220/3/3 216/3/3 215/3/3
f 221/3/3 216/3/3 220/3/3
f 226/3/3 223/3/3 222/3/3
f 227/3/3 223/3/3 226/3/3
f 228/3/3 225/3/3 224/3/3
f 229/3/3 225/3/3 228/3/3
f 231/3/3 230/3/3 229/3/3
f 232/3/3 230/3/3 231/3/3
f 238/3/3 234/3/3 233/3/3
f 239/3/3 234/3/3 238/3/3
f 240/3/3 236/3/3 235/3/3
f 241/3/3 236/3/3 240/3/3
f 242/3/3 238/3/3 237/3/3
f 243/3/3 238/3/3 242/3/3
f 244/3/4 245/3/4 248/3/4
f 248/3/4 245/3/4 249/3/4
f 246/3/4 247/3/4 250/3/4
f 250/3/4 247/3/4 251/3/4
f 251/3/4 252/3/4 253/3/4
f 253/3/4 252/3/4 254/3/4
f 255/3/4 256/3/4 260/3/4
f 260/3/4 256/3/4 261/3/4
f 257/3/4 258/3/4 262/3/4
f 262/3/4 258/3/4 263/3/4
f 259/3/4 260/3/4 264/3/4
f 264/3/4 260/3/4 265/3/4
f 266/3/4 267/3/4 271/3/4
f 271/3/4 267/3/4 272/3/4
f 268/3/4 269/3/4 273/3/4
f 273/3/4 269/3/4 274/3/4
f 270/3/4 271/3/4 276/3/4
f 276/3/4 271/3/4 277/3/4
f 274/3/4 275/3/4 278/3/4
f 278/3/4 275/3/4 279/3/4
f 279/3/4 280/3/4 284/3/4
f 284/3/4 280/3/4 285/3/4
f 281/3/4 282/3/4 286/3/4
f 286/3/4 282/3/4 287/3/4
f 283/3/4 284/3/4 290/3/4
f 290/3/4 284/3/4 291/3/4
f 287/3/4 288/3/4 292/3/4
f 292/3/4 288/3/4 293/3/4
f 289/3/4 290/3/4 294/3/4
f 294/3/4 290/3/4 295/3/4
f 296/3/4 297/3/4 299/3/4
f 299/3/4 297/3/4 300/3/4
f 298/3/4 299/3/4 303/3/4
f 300/3/4 301/3/4 303/3/4
f 299/3/4 300/3/4 303/3/4
f 303/3/4 301/3/4 304/3/4
f 302/3/4 303/3/4 306/3/4
f 304/3/4 305/3/4 306/3/4
f 303/3/4 304/3/4 306/3/4
f 306/3/4 305/3/4 307/3/4
f 307/3/4 305/3/4 308/3/4
f 308/3/4 305/3/4 309/3/4
f 307/3/4 308/3/4 310/3/4
f 310/3/4 308/3/4 311/3/4
f 311/3/4 308/3/4 312/3/4
f 312/3/4 308/3/4 313/3/4
f 311/3/4 312/3/4 314/3/4
f 314/3/4 312/3/4 315/3/4
f 321/3/5 317/3/5 316/3/5
f 322/3/5 317/3/5 321/3/5
f 323/3/5 319/3/5 318/3/5
f 324/3/5 319/3/5 323/3/5
f 327/3/5 322/3/5 321/3/5
f 327/3/5 321/3/5 320/3/5
f 328/2/5 323/2/5 322/2/5
f 328/3/5 322/3/5 327/3/5
f 329/3/5 325/3/5 324/3/5
f 329/2/5 323/2/5 328/2/5
f 329/3/5 324/3/5 323/3/5
f 330/3/5 325/3/5 329/3/5
f 332/3/5 328/3/5 327/3/5
f 332/3/5 331/3/5 330/3/5
f 332/3/5 330/3/5 329/3/5
f 332/3/5 329/3/5 328/3/5
f 332/3/5 327/3/5 326/3/5
f 333/3/5 331/3/5 332/3/5
f 334/3/5 331/3/5 333/3/5
f 335/3/5 331/3/5 334/3/5
f 336/3/5 334/3/5 333/3/5
f 337/3/5 334/3/5 336/3/5
f 338/3/5 334/3/5 337/3/5
f 339/3/5 334/3/5 338/3/5
f 340/3/5 338/3/5 337/3/5
f 341/3/5 338/3/5 340/3/5
f 347/3/5 343/3/5 342/3/5
f 348/3/5 343/3/5 347/3/5
f 349/3/5 345/3/5 344/3/5
f 350/3/5 345/3/5 349/3/5
f 352/3/5 347/3/5 346/3/5
f 353/3/5 347/3/5 352/3/5
f 354/3/5 351/3/5 350/3/5
f 355/3/5 351/3/5 354/3/5
f 360/3/5 357/3/5 356/3/5
f 361/3/5 357/3/5 360/3/5
f 364/3/5 359/3/5 358/3/5
f 365/3/5 359/3/5 364/3/5
f 366/3/5 362/3/5 361/3/5
f 367/3/5 362/3/5 366/3/5
f 368/3/5 364/3/5 363/3/5
f 369/3/5 364/3/5 368/3/5
f 374/3/5 371/3/5 370/3/5
f 375/3/5 371/3/5 374/3/5
f 376/3/5 373/3/5 372/3/5
f 377/3/5 373/3/5 376/3/5
f 382/3/5 379/3/5 378/3/5
f 383/3/5 379/3/5 382/3/5
f 384/3/5 381/3/5 380/3/5
f 385/3/5 381/3/5 384/3/5
f 388/3/5 387/3/5 386/3/5
f 389/3/5 387/3/5 388/3/5
f 390/3/6 391/3/6 392/3/6
f 392/3/6 391/3/6 393/3/6
f 394/3/6 395/3/6 398/3/6
f 398/3/6 395/3/6 399/3/6
f 396/3/6 397/3/6 400/3/6
f 400/3/6 397/3/6 401/3/6
f 402/3/6 403/3/6 406/3/6
f 406/3/6 403/3/6 407/3/6
f 404/3/6 405/3/6 408/3/6
f 408/3/6 405/3/6 409/3/6
f 410/3/6 411/3/6 415/3/6
f 415/3/6 411/3/6 416/3/6
f 412/3/6 413/3/6 417/3/6
f 417/3/6 413/3/6 418/3/6
f 414/3/6 415/3/6 420/3/6
f 420/3/6 415/3/6 421/3/6
f 418/3/6 419/3/6 422/3/6
f 422/3/6 419/3/6 423/3/6
f 424/3/6 425/3/6 428/3/6
f 428/3/6 425/3/6 429/3/6
f 426/3/6 427/3/6 432/3/6
f 432/3/6 427/3/6 433/3/6
f 429/3/6 430/3/6 434/3/6
f 434/3/6 430/3/6 435/3/6
f 431/3/6 432/3/6 436/3/6
f 436/3/6 432/3/6 437/3/6
f 438/3/6 439/3/6 441/3/6
f 441/3/6 439/3/6 442/3/6
f 440/3/6 441/3/6 445/3/6
f 445/3/6 441/3/6 446/3/6
f 442/3/6 443/3/6 447/3/6
f 447/3/6 443/3/6 448/3/6
f 444/3/6 445/3/6 450/3/6
f 450/3/6 445/3/6 451/3/6
f 448/3/6 449/3/6 454/3/6
f 454/3/6 449/3/6 455/3/6
f 451/3/6 452/3/6 456/3/6
f 456/3/6 452/3/6 457/3/6
f 453/3/6 454/3/6 458/3/6
f 458/3/6 454/3/6 459/3/6
f 457/3/6 458/3/6 460/3/6
f 460/3/6 458/3/6 461/3/6
f 462/3/6 463/3/6 465/3/6
f 465/3/6 463/3/6 466/3/6
f 464/3/6 465/3/6 468/3/6
f 466/3/6 467/3/6 468/3/6
f 465/3/6 466/3/6 468/3/6
f 468/3/6 467/3/6 469/3/6
f 469/3/6 467/3/6 470/3/6
f 470/3/6 467/3/6 471/3/6
f 469/3/6 470/3/6 472/3/6
f 472/3/6 470/3/6 473/3/6
