# MagicaVoxel @ Ephtracy

# group
o 

# material
mtllib main.mtl
usemtl palette

# normals
vn -1 0 0
vn 1 0 0
vn 0 0 1
vn 0 0 -1
vn 0 -1 0
vn 0 1 0

# texcoords
vt 0.00195312 0.5
vt 0.0410156 0.5
vt 0.822266 0.5
vt 0.845703 0.5
vt 0.876953 0.5
vt 0.958984 0.5

# verts
v -0.5 0.3 0
v -0.5 0.3 -0.1
v -0.5 0.5 0
v -0.5 0.5 -0.1
v -0.4 0 0
v -0.4 0 -0.1
v -0.4 0.1 0
v -0.4 0.1 -0.1
v -0.4 0.2 0
v -0.4 0.2 -0.1
v -0.4 0.3 0
v -0.4 0.3 -0.1
v -0.4 0.4 0.1
v -0.4 0.4 0
v -0.4 0.4 -0.1
v -0.4 0.4 -0.2
v -0.4 0.5 0.1
v -0.4 0.5 0
v -0.4 0.5 -0.1
v -0.4 0.5 -0.2
v -0.4 0.6 0
v -0.4 0.6 -0.1
v -0.4 0.7 0.3
v -0.4 0.7 0.2
v -0.4 0.8 0.3
v -0.4 0.8 0.2
v -0.4 0.8 -0.3
v -0.4 1 0.2
v -0.4 1 -0.3
v -0.3 0 0.1
v -0.3 0 0
v -0.3 0 -0.1
v -0.3 0 -0.2
v -0.3 0.1 0
v -0.3 0.1 -0.1
v -0.3 0.1 -0.2
v -0.3 0.2 0.1
v -0.3 0.2 0
v -0.3 0.2 -0.1
v -0.3 0.4 0.1
v -0.3 0.4 0
v -0.3 0.4 -0.1
v -0.3 0.4 -0.2
v -0.3 0.5 0.1
v -0.3 0.5 0
v -0.3 0.5 -0.1
v -0.3 0.5 -0.2
v -0.3 0.6 0.2
v -0.3 0.6 0.1
v -0.3 0.6 0
v -0.3 0.6 -0.1
v -0.3 0.6 -0.2
v -0.3 0.7 0.2
v -0.3 0.7 0.1
v -0.3 0.7 0
v -0.3 0.7 -0.1
v -0.3 0.7 -0.3
v -0.3 0.8 0.3
v -0.3 0.8 0.2
v -0.3 0.8 0
v -0.3 0.8 -0.1
v -0.3 0.8 -0.3
v -0.3 0.8 -0.4
v -0.3 1 0.3
v -0.3 1 0.2
v -0.3 1 -0.3
v -0.3 1 -0.4
v -0.3 1.2 0.2
v -0.3 1.2 -0.3
v -0.2 0 -0.2
v -0.2 0 -0.3
v -0.2 0.1 0.2
v -0.2 0.1 0.1
v -0.2 0.1 -0.2
v -0.2 0.2 0.1
v -0.2 0.4 0.2
v -0.2 0.4 0.1
v -0.2 0.4 -0.2
v -0.2 0.4 -0.3
v -0.2 0.6 0.1
v -0.2 0.6 0
v -0.2 0.6 -0.1
v -0.2 0.6 -0.2
v -0.2 0.7 0.1
v -0.2 0.7 0
v -0.2 0.7 -0.1
v -0.2 0.7 -0.2
v -0.2 0.8 0
v -0.2 0.8 -0.1
v -0.2 0.8 -0.4
v -0.2 0.8 -0.5
v -0.2 1 0.3
v -0.2 1 0.2
v -0.2 1 -0.3
v -0.2 1 -0.4
v -0.2 1 -0.5
v -0.2 1.1 0.3
v -0.2 1.1 0.2
v -0.2 1.2 0.2
v -0.2 1.2 -0.3
v -0.2 1.2 -0.4
v -0.2 1.3 0.2
v -0.2 1.3 -0.3
v -0.1 0.4 0.2
v -0.1 0.4 0.1
v -0.1 0.4 -0.2
v -0.1 0.4 -0.3
v -0.1 0.5 0.2
v -0.1 0.5 0.1
v -0.1 0.5 -0.2
v -0.1 0.5 -0.3
v -0.1 0.6 -0.2
v -0.1 0.6 -0.3
v -0.1 0.7 -0.2
v -0.1 0.7 -0.3
v -0.1 1 0.1
v -0.1 1 0
v -0.1 1 -0.4
v -0.1 1 -0.5
v -0.1 1.1 0.3
v -0.1 1.1 0.2
v -0.1 1.1 0.1
v -0.1 1.1 0
v -0.1 1.1 -0.4
v -0.1 1.1 -0.5
v -0.1 1.2 0.3
v -0.1 1.2 0.2
v -0.1 1.2 -0.3
v -0.1 1.2 -0.4
v -0.1 1.3 0.1
v -0.1 1.3 -0.3
v -0.1 1.3 -0.4
v -0.1 1.4 0.1
v -0.1 1.4 -0.3
v 0 0.1 -0.2
v 0 0.1 -0.3
v 0 0.2 -0.2
v 0 0.2 -0.3
v 0 0.8 -0.5
v 0 0.8 -0.6
v 0 0.9 -0.5
v 0 0.9 -0.6
v 0.1 0 0
v 0.1 0 -0.1
v 0.1 0 -0.2
v 0.1 0 -0.3
v 0.1 0.1 0.2
v 0.1 0.1 0.1
v 0.1 0.1 0
v 0.1 0.1 -0.1
v 0.1 0.1 -0.2
v 0.1 0.1 -0.3
v 0.1 0.2 0
v 0.1 0.2 -0.1
v 0.1 0.3 0.2
v 0.1 0.3 0.1
v 0.1 0.9 0.3
v 0.1 0.9 0.2
v 0.1 1 0.3
v 0.1 1 0.2
v 0.2 0.6 0.2
v 0.2 0.6 0.1
v 0.2 0.7 0.3
v 0.2 0.7 0.2
v 0.2 0.7 0.1
v 0.2 0.8 0.1
v 0.2 0.9 0.3
v 0.2 0.9 0.2
v 0.2 0.9 0.1
v -0.2 0.6 0.2
v -0.2 0.6 0.1
v -0.2 0.7 0.3
v -0.2 0.7 0.2
v -0.2 0.7 0.1
v -0.2 0.9 0.3
v -0.2 0.9 0.2
v -0.2 1 0.1
v -0.2 1 0
v -0.2 1.1 0.1
v -0.2 1.1 0
v -0.1 0 0
v -0.1 0 -0.1
v -0.1 0 -0.2
v -0.1 0 -0.3
v -0.1 0.1 0.2
v -0.1 0.1 0.1
v -0.1 0.1 0
v -0.1 0.1 -0.1
v -0.1 0.2 0.2
v -0.1 0.2 0.1
v -0.1 0.2 0
v -0.1 0.2 -0.1
v -0.1 0.2 -0.2
v -0.1 0.2 -0.3
v -0.1 0.7 0.2
v -0.1 0.7 0.1
v -0.1 0.8 0.2
v -0.1 0.8 0.1
v -0.1 0.9 0.3
v -0.1 0.9 0.2
v -0.1 1 0.3
v -0.1 1 0.2
v 0 0.2 0.2
v 0 0.2 0.1
v 0 0.3 0.2
v 0 0.3 0.1
v 0 0.8 0.2
v 0 0.8 0.1
v 0 0.9 0.2
v 0 0.9 0.1
v 0.1 0.4 0.2
v 0.1 0.4 0.1
v 0.1 0.4 -0.2
v 0.1 0.4 -0.3
v 0.1 0.5 0.2
v 0.1 0.5 0.1
v 0.1 0.5 -0.2
v 0.1 0.5 -0.3
v 0.1 0.6 -0.2
v 0.1 0.6 -0.3
v 0.1 0.7 -0.2
v 0.1 0.7 -0.3
v 0.1 0.8 -0.5
v 0.1 0.8 -0.6
v 0.1 0.9 -0.5
v 0.1 0.9 -0.6
v 0.1 1 -0.4
v 0.1 1 -0.5
v 0.1 1.1 0.3
v 0.1 1.1 0.2
v 0.1 1.1 -0.4
v 0.1 1.1 -0.5
v 0.1 1.2 0.3
v 0.1 1.2 0.2
v 0.1 1.2 -0.3
v 0.1 1.2 -0.4
v 0.1 1.3 0.1
v 0.1 1.3 -0.3
v 0.1 1.3 -0.4
v 0.1 1.4 0.1
v 0.1 1.4 -0.3
v 0.2 0 -0.2
v 0.2 0 -0.3
v 0.2 0.1 0.2
v 0.2 0.1 0.1
v 0.2 0.1 -0.2
v 0.2 0.2 0.1
v 0.2 0.4 0.2
v 0.2 0.4 0.1
v 0.2 0.4 -0.2
v 0.2 0.4 -0.3
v 0.2 0.6 0.1
v 0.2 0.6 0
v 0.2 0.6 -0.1
v 0.2 0.6 -0.2
v 0.2 0.7 0.1
v 0.2 0.7 0
v 0.2 0.7 -0.1
v 0.2 0.7 -0.2
v 0.2 0.7 -0.3
v 0.2 0.8 0
v 0.2 0.8 -0.1
v 0.2 0.8 -0.2
v 0.2 0.8 -0.3
v 0.2 0.8 -0.4
v 0.2 0.8 -0.5
v 0.2 1 0.3
v 0.2 1 0.2
v 0.2 1 -0.3
v 0.2 1 -0.4
v 0.2 1 -0.5
v 0.2 1.1 0.3
v 0.2 1.1 0.2
v 0.2 1.2 0.2
v 0.2 1.2 -0.3
v 0.2 1.2 -0.4
v 0.2 1.3 0.2
v 0.2 1.3 -0.3
v 0.3 0 0.1
v 0.3 0 0
v 0.3 0 -0.1
v 0.3 0 -0.2
v 0.3 0.1 0
v 0.3 0.1 -0.1
v 0.3 0.1 -0.2
v 0.3 0.2 0.1
v 0.3 0.2 0
v 0.3 0.2 -0.1
v 0.3 0.4 0.1
v 0.3 0.4 0
v 0.3 0.4 -0.1
v 0.3 0.4 -0.2
v 0.3 0.5 0.1
v 0.3 0.5 0
v 0.3 0.5 -0.1
v 0.3 0.5 -0.2
v 0.3 0.6 0.2
v 0.3 0.6 0.1
v 0.3 0.6 0
v 0.3 0.6 -0.1
v 0.3 0.6 -0.2
v 0.3 0.7 0.2
v 0.3 0.7 0.1
v 0.3 0.7 0
v 0.3 0.7 -0.1
v 0.3 0.7 -0.2
v 0.3 0.8 0.3
v 0.3 0.8 0.2
v 0.3 0.8 0
v 0.3 0.8 -0.1
v 0.3 0.8 -0.2
v 0.3 0.8 -0.3
v 0.3 0.8 -0.4
v 0.3 1 0.3
v 0.3 1 0.2
v 0.3 1 -0.3
v 0.3 1 -0.4
v 0.3 1.2 0.2
v 0.3 1.2 -0.3
v 0.4 0 0
v 0.4 0 -0.1
v 0.4 0.1 0
v 0.4 0.1 -0.1
v 0.4 0.2 0
v 0.4 0.2 -0.1
v 0.4 0.3 0
v 0.4 0.3 -0.1
v 0.4 0.4 0.1
v 0.4 0.4 0
v 0.4 0.4 -0.1
v 0.4 0.4 -0.2
v 0.4 0.5 0.1
v 0.4 0.5 0
v 0.4 0.5 -0.1
v 0.4 0.5 -0.2
v 0.4 0.6 0
v 0.4 0.6 -0.1
v 0.4 0.7 0.3
v 0.4 0.7 0.2
v 0.4 0.8 0.3
v 0.4 0.8 0.2
v 0.4 0.8 -0.3
v 0.4 1 0.2
v 0.4 1 -0.3
v 0.5 0.3 0
v 0.5 0.3 -0.1
v 0.5 0.5 0
v 0.5 0.5 -0.1
v -0.4 0.7 0.3
v -0.4 0.8 0.3
v -0.3 0.8 0.3
v -0.3 1 0.3
v -0.2 0.7 0.3
v -0.2 0.9 0.3
v -0.2 1 0.3
v -0.2 1.1 0.3
v -0.1 0.9 0.3
v -0.1 1 0.3
v -0.1 1.1 0.3
v -0.1 1.2 0.3
v 0.1 0.9 0.3
v 0.1 1 0.3
v 0.1 1.1 0.3
v 0.1 1.2 0.3
v 0.2 0.7 0.3
v 0.2 0.9 0.3
v 0.2 1 0.3
v 0.2 1.1 0.3
v 0.3 0.8 0.3
v 0.3 1 0.3
v 0.4 0.7 0.3
v 0.4 0.8 0.3
v -0.4 0.8 0.2
v -0.4 1 0.2
v -0.3 0.6 0.2
v -0.3 0.7 0.2
v -0.3 0.8 0.2
v -0.3 1 0.2
v -0.3 1.2 0.2
v -0.2 0.1 0.2
v -0.2 0.4 0.2
v -0.2 0.6 0.2
v -0.2 0.7 0.2
v -0.2 0.9 0.2
v -0.2 1 0.2
v -0.2 1.1 0.2
v -0.2 1.2 0.2
v -0.2 1.3 0.2
v -0.1 0.1 0.2
v -0.1 0.2 0.2
v -0.1 0.4 0.2
v -0.1 0.5 0.2
v -0.1 0.7 0.2
v -0.1 0.8 0.2
v -0.1 0.9 0.2
v -0.1 1 0.2
v -0.1 1.1 0.2
v -0.1 1.2 0.2
v 0 0.2 0.2
v 0 0.3 0.2
v 0 0.8 0.2
v 0 0.9 0.2
v 0.1 0.1 0.2
v 0.1 0.3 0.2
v 0.1 0.4 0.2
v 0.1 0.5 0.2
v 0.1 0.9 0.2
v 0.1 1 0.2
v 0.1 1.1 0.2
v 0.1 1.2 0.2
v 0.2 0.1 0.2
v 0.2 0.4 0.2
v 0.2 0.6 0.2
v 0.2 0.7 0.2
v 0.2 1 0.2
v 0.2 1.1 0.2
v 0.2 1.2 0.2
v 0.2 1.3 0.2
v 0.3 0.6 0.2
v 0.3 0.7 0.2
v 0.3 0.8 0.2
v 0.3 1 0.2
v 0.3 1.2 0.2
v 0.4 0.8 0.2
v 0.4 1 0.2
v -0.4 0.4 0.1
v -0.4 0.5 0.1
v -0.3 0 0.1
v -0.3 0.2 0.1
v -0.3 0.4 0.1
v -0.3 0.5 0.1
v -0.3 0.6 0.1
v -0.2 0 0.1
v -0.2 0.1 0.1
v -0.2 0.2 0.1
v -0.2 0.4 0.1
v -0.2 0.5 0.1
v -0.2 0.6 0.1
v -0.2 0.7 0.1
v -0.1 0.1 0.1
v -0.1 0.2 0.1
v -0.1 0.4 0.1
v -0.1 0.5 0.1
v -0.1 0.6 0.1
v -0.1 0.7 0.1
v -0.1 0.8 0.1
v -0.1 1.3 0.1
v -0.1 1.4 0.1
v 0 0.2 0.1
v 0 0.3 0.1
v 0 0.5 0.1
v 0 0.6 0.1
v 0 0.7 0.1
v 0 0.8 0.1
v 0 0.9 0.1
v 0.1 0.1 0.1
v 0.1 0.3 0.1
v 0.1 0.4 0.1
v 0.1 0.5 0.1
v 0.1 0.6 0.1
v 0.1 0.7 0.1
v 0.1 0.8 0.1
v 0.1 0.9 0.1
v 0.1 1.3 0.1
v 0.1 1.4 0.1
v 0.2 0 0.1
v 0.2 0.1 0.1
v 0.2 0.2 0.1
v 0.2 0.4 0.1
v 0.2 0.5 0.1
v 0.2 0.6 0.1
v 0.2 0.7 0.1
v 0.2 0.8 0.1
v 0.2 0.9 0.1
v 0.3 0 0.1
v 0.3 0.2 0.1
v 0.3 0.4 0.1
v 0.3 0.5 0.1
v 0.3 0.6 0.1
v 0.4 0.4 0.1
v 0.4 0.5 0.1
v -0.5 0.3 0
v -0.5 0.5 0
v -0.4 0 0
v -0.4 0.1 0
v -0.4 0.2 0
v -0.4 0.3 0
v -0.4 0.4 0
v -0.4 0.5 0
v -0.4 0.6 0
v -0.3 0 0
v -0.3 0.1 0
v -0.3 0.2 0
v -0.3 0.4 0
v -0.3 0.5 0
v -0.3 0.6 0
v -0.3 0.7 0
v -0.2 0.6 0
v -0.2 0.7 0
v -0.2 1 0
v -0.2 1.1 0
v -0.1 1 0
v -0.1 1.1 0
v 0.2 0.6 0
v 0.2 0.7 0
v 0.3 0 0
v 0.3 0.1 0
v 0.3 0.2 0
v 0.3 0.4 0
v 0.3 0.5 0
v 0.3 0.6 0
v 0.3 0.7 0
v 0.4 0 0
v 0.4 0.1 0
v 0.4 0.2 0
v 0.4 0.3 0
v 0.4 0.4 0
v 0.4 0.5 0
v 0.4 0.6 0
v 0.5 0.3 0
v 0.5 0.5 0
v -0.3 0.7 -0.1
v -0.3 0.8 -0.1
v -0.2 0.7 -0.1
v -0.2 0.8 -0.1
v -0.1 0 -0.1
v -0.1 0.1 -0.1
v -0.1 0.2 -0.1
v 0.1 0 -0.1
v 0.1 0.1 -0.1
v 0.1 0.2 -0.1
v 0.2 0.7 -0.1
v 0.2 0.8 -0.1
v 0.3 0.7 -0.1
v 0.3 0.8 -0.1
v -0.4 0.7 0.2
v -0.4 0.8 0.2
v -0.3 0.7 0.2
v -0.3 0.8 0.2
v 0.3 0.7 0.2
v 0.3 0.8 0.2
v 0.4 0.7 0.2
v 0.4 0.8 0.2
v -0.3 0.6 0.1
v -0.3 0.7 0.1
v -0.2 0.6 0.1
v -0.2 0.7 0.1
v -0.2 1 0.1
v -0.2 1.1 0.1
v -0.1 1 0.1
v -0.1 1.1 0.1
v 0.2 0.6 0.1
v 0.2 0.7 0.1
v 0.3 0.6 0.1
v 0.3 0.7 0.1
v -0.3 0.7 0
v -0.3 0.8 0
v -0.2 0.7 0
v -0.2 0.8 0
v -0.1 0 0
v -0.1 0.1 0
v -0.1 0.2 0
v 0.1 0 0
v 0.1 0.1 0
v 0.1 0.2 0
v 0.2 0.7 0
v 0.2 0.8 0
v 0.3 0.7 0
v 0.3 0.8 0
v -0.5 0.3 -0.1
v -0.5 0.5 -0.1
v -0.4 0 -0.1
v -0.4 0.1 -0.1
v -0.4 0.2 -0.1
v -0.4 0.3 -0.1
v -0.4 0.4 -0.1
v -0.4 0.5 -0.1
v -0.4 0.6 -0.1
v -0.3 0 -0.1
v -0.3 0.1 -0.1
v -0.3 0.2 -0.1
v -0.3 0.4 -0.1
v -0.3 0.5 -0.1
v -0.3 0.6 -0.1
v -0.3 0.7 -0.1
v -0.2 0.6 -0.1
v -0.2 0.7 -0.1
v 0.2 0.6 -0.1
v 0.2 0.7 -0.1
v 0.3 0 -0.1
v 0.3 0.1 -0.1
v 0.3 0.2 -0.1
v 0.3 0.4 -0.1
v 0.3 0.5 -0.1
v 0.3 0.6 -0.1
v 0.3 0.7 -0.1
v 0.4 0 -0.1
v 0.4 0.1 -0.1
v 0.4 0.2 -0.1
v 0.4 0.3 -0.1
v 0.4 0.4 -0.1
v 0.4 0.5 -0.1
v 0.4 0.6 -0.1
v 0.5 0.3 -0.1
v 0.5 0.5 -0.1
v -0.4 0.4 -0.2
v -0.4 0.5 -0.2
v -0.3 0 -0.2
v -0.3 0.1 -0.2
v -0.3 0.4 -0.2
v -0.3 0.5 -0.2
v -0.3 0.6 -0.2
v -0.2 0 -0.2
v -0.2 0.1 -0.2
v -0.2 0.4 -0.2
v -0.2 0.5 -0.2
v -0.2 0.6 -0.2
v -0.2 0.7 -0.2
v -0.1 0 -0.2
v -0.1 0.2 -0.2
v -0.1 0.4 -0.2
v -0.1 0.5 -0.2
v -0.1 0.6 -0.2
v -0.1 0.7 -0.2
v 0 0.1 -0.2
v 0 0.2 -0.2
v 0.1 0 -0.2
v 0.1 0.1 -0.2
v 0.1 0.4 -0.2
v 0.1 0.5 -0.2
v 0.1 0.6 -0.2
v 0.1 0.7 -0.2
v 0.2 0 -0.2
v 0.2 0.1 -0.2
v 0.2 0.4 -0.2
v 0.2 0.5 -0.2
v 0.2 0.6 -0.2
v 0.2 0.7 -0.2
v 0.2 0.8 -0.2
v 0.3 0 -0.2
v 0.3 0.1 -0.2
v 0.3 0.4 -0.2
v 0.3 0.5 -0.2
v 0.3 0.6 -0.2
v 0.3 0.7 -0.2
v 0.3 0.8 -0.2
v 0.4 0.4 -0.2
v 0.4 0.5 -0.2
v -0.4 0.8 -0.3
v -0.4 1 -0.3
v -0.3 0.7 -0.3
v -0.3 0.8 -0.3
v -0.3 1 -0.3
v -0.3 1.2 -0.3
v -0.2 0 -0.3
v -0.2 0.4 -0.3
v -0.2 1 -0.3
v -0.2 1.2 -0.3
v -0.2 1.3 -0.3
v -0.1 0 -0.3
v -0.1 0.2 -0.3
v -0.1 0.4 -0.3
v -0.1 0.5 -0.3
v -0.1 0.6 -0.3
v -0.1 0.7 -0.3
v -0.1 1.2 -0.3
v -0.1 1.3 -0.3
v -0.1 1.4 -0.3
v 0 0.1 -0.3
v 0 0.2 -0.3
v 0.1 0 -0.3
v 0.1 0.1 -0.3
v 0.1 0.4 -0.3
v 0.1 0.5 -0.3
v 0.1 0.6 -0.3
v 0.1 0.7 -0.3
v 0.1 1.2 -0.3
v 0.1 1.3 -0.3
v 0.1 1.4 -0.3
v 0.2 0 -0.3
v 0.2 0.4 -0.3
v 0.2 0.7 -0.3
v 0.2 0.8 -0.3
v 0.2 1 -0.3
v 0.2 1.2 -0.3
v 0.2 1.3 -0.3
v 0.3 0.8 -0.3
v 0.3 1 -0.3
v 0.3 1.2 -0.3
v 0.4 0.8 -0.3
v 0.4 1 -0.3
v -0.3 0.8 -0.4
v -0.3 1 -0.4
v -0.2 0.8 -0.4
v -0.2 1 -0.4
v -0.2 1.2 -0.4
v -0.1 1 -0.4
v -0.1 1.1 -0.4
v -0.1 1.2 -0.4
v -0.1 1.3 -0.4
v 0.1 1 -0.4
v 0.1 1.1 -0.4
v 0.1 1.2 -0.4
v 0.1 1.3 -0.4
v 0.2 0.8 -0.4
v 0.2 1 -0.4
v 0.2 1.2 -0.4
v 0.3 0.8 -0.4
v 0.3 1 -0.4
v -0.2 0.8 -0.5
v -0.2 1 -0.5
v -0.1 1 -0.5
v -0.1 1.1 -0.5
v 0 0.8 -0.5
v 0 0.9 -0.5
v 0.1 0.8 -0.5
v 0.1 0.9 -0.5
v 0.1 1 -0.5
v 0.1 1.1 -0.5
v 0.2 0.8 -0.5
v 0.2 1 -0.5
v 0 0.8 -0.6
v 0 0.9 -0.6
v 0.1 0.8 -0.6
v 0.1 0.9 -0.6
v -0.3 0 0.1
v -0.2 0 0.1
v 0.2 0 0.1
v 0.3 0 0.1
v -0.4 0 0
v -0.3 0 0
v -0.2 0 0
v -0.1 0 0
v 0.1 0 0
v 0.2 0 0
v 0.3 0 0
v 0.4 0 0
v -0.4 0 -0.1
v -0.3 0 -0.1
v -0.2 0 -0.1
v -0.1 0 -0.1
v 0.1 0 -0.1
v 0.2 0 -0.1
v 0.3 0 -0.1
v 0.4 0 -0.1
v -0.3 0 -0.2
v -0.2 0 -0.2
v -0.1 0 -0.2
v 0.1 0 -0.2
v 0.2 0 -0.2
v 0.3 0 -0.2
v -0.2 0 -0.3
v -0.1 0 -0.3
v 0.1 0 -0.3
v 0.2 0 -0.3
v -0.2 0.1 0.2
v -0.1 0.1 0.2
v 0.1 0.1 0.2
v 0.2 0.1 0.2
v -0.2 0.1 0.1
v -0.1 0.1 0.1
v 0.1 0.1 0.1
v 0.2 0.1 0.1
v 0 0.1 -0.2
v 0.1 0.1 -0.2
v 0 0.1 -0.3
v 0.1 0.1 -0.3
v -0.1 0.2 0.2
v 0 0.2 0.2
v -0.1 0.2 0.1
v 0 0.2 0.1
v -0.4 0.2 0
v -0.3 0.2 0
v -0.1 0.2 0
v 0.1 0.2 0
v 0.3 0.2 0
v 0.4 0.2 0
v -0.4 0.2 -0.1
v -0.3 0.2 -0.1
v -0.1 0.2 -0.1
v 0.1 0.2 -0.1
v 0.3 0.2 -0.1
v 0.4 0.2 -0.1
v -0.1 0.2 -0.2
v 0 0.2 -0.2
v -0.1 0.2 -0.3
v 0 0.2 -0.3
v 0 0.3 0.2
v 0.1 0.3 0.2
v 0 0.3 0.1
v 0.1 0.3 0.1
v -0.5 0.3 0
v -0.4 0.3 0
v 0.4 0.3 0
v 0.5 0.3 0
v -0.5 0.3 -0.1
v -0.4 0.3 -0.1
v 0.4 0.3 -0.1
v 0.5 0.3 -0.1
v -0.4 0.4 0.1
v -0.3 0.4 0.1
v 0.3 0.4 0.1
v 0.4 0.4 0.1
v -0.4 0.4 0
v -0.3 0.4 0
v 0.3 0.4 0
v 0.4 0.4 0
v -0.4 0.4 -0.1
v -0.3 0.4 -0.1
v 0.3 0.4 -0.1
v 0.4 0.4 -0.1
v -0.4 0.4 -0.2
v -0.3 0.4 -0.2
v 0.3 0.4 -0.2
v 0.4 0.4 -0.2
v -0.3 0.6 0.2
v -0.2 0.6 0.2
v 0.2 0.6 0.2
v 0.3 0.6 0.2
v -0.3 0.6 0.1
v -0.2 0.6 0.1
v 0.2 0.6 0.1
v 0.3 0.6 0.1
v -0.1 0.6 -0.2
v 0.1 0.6 -0.2
v -0.1 0.6 -0.3
v 0.1 0.6 -0.3
v -0.4 0.7 0.3
v -0.2 0.7 0.3
v 0.2 0.7 0.3
v 0.4 0.7 0.3
v -0.4 0.7 0.2
v -0.3 0.7 0.2
v -0.2 0.7 0.2
v -0.1 0.7 0.2
v 0.2 0.7 0.2
v 0.3 0.7 0.2
v 0.4 0.7 0.2
v -0.3 0.7 0.1
v -0.2 0.7 0.1
v -0.1 0.7 0.1
v 0.2 0.7 0.1
v 0.3 0.7 0.1
v -0.3 0.7 0
v -0.2 0.7 0
v 0.2 0.7 0
v 0.3 0.7 0
v -0.3 0.7 -0.1
v -0.2 0.7 -0.1
v 0.2 0.7 -0.1
v 0.3 0.7 -0.1
v -0.2 0.7 -0.2
v -0.1 0.7 -0.2
v 0.1 0.7 -0.2
v 0.2 0.7 -0.2
v 0.3 0.7 -0.2
v -0.3 0.7 -0.3
v -0.1 0.7 -0.3
v 0.1 0.7 -0.3
v 0.2 0.7 -0.3
v -0.4 0.8 0.2
v -0.3 0.8 0.2
v -0.1 0.8 0.2
v 0 0.8 0.2
v 0.3 0.8 0.2
v 0.4 0.8 0.2
v -0.1 0.8 0.1
v 0 0.8 0.1
v -0.3 0.8 0
v -0.2 0.8 0
v 0.2 0.8 0
v 0.3 0.8 0
v -0.3 0.8 -0.1
v -0.2 0.8 -0.1
v 0.2 0.8 -0.1
v 0.3 0.8 -0.1
v 0.2 0.8 -0.2
v 0.3 0.8 -0.2
v -0.4 0.8 -0.3
v -0.3 0.8 -0.3
v 0.2 0.8 -0.3
v 0.3 0.8 -0.3
v 0.4 0.8 -0.3
v -0.3 0.8 -0.4
v -0.2 0.8 -0.4
v 0.2 0.8 -0.4
v 0.3 0.8 -0.4
v -0.2 0.8 -0.5
v 0 0.8 -0.5
v 0.1 0.8 -0.5
v 0.2 0.8 -0.5
v 0 0.8 -0.6
v 0.1 0.8 -0.6
v -0.2 0.9 0.3
v -0.1 0.9 0.3
v 0.1 0.9 0.3
v 0.2 0.9 0.3
v -0.2 0.9 0.2
v -0.1 0.9 0.2
v 0 0.9 0.2
v 0.1 0.9 0.2
v 0.2 0.9 0.2
v 0 0.9 0.1
v 0.1 0.9 0.1
v 0.2 0.9 0.1
v -0.1 1 0.3
v 0.1 1 0.3
v -0.1 1 0.2
v 0.1 1 0.2
v -0.2 1.1 0.1
v -0.1 1.1 0.1
v -0.2 1.1 0
v -0.1 1.1 0
v -0.4 0.1 0
v -0.3 0.1 0
v 0.3 0.1 0
v 0.4 0.1 0
v -0.4 0.1 -0.1
v -0.3 0.1 -0.1
v 0.3 0.1 -0.1
v 0.4 0.1 -0.1
v -0.2 0.4 0.2
v -0.1 0.4 0.2
v 0.1 0.4 0.2
v 0.2 0.4 0.2
v -0.2 0.4 0.1
v -0.1 0.4 0.1
v 0.1 0.4 0.1
v 0.2 0.4 0.1
v -0.2 0.4 -0.2
v -0.1 0.4 -0.2
v 0.1 0.4 -0.2
v 0.2 0.4 -0.2
v -0.2 0.4 -0.3
v -0.1 0.4 -0.3
v 0.1 0.4 -0.3
v 0.2 0.4 -0.3
v -0.1 0.5 0.2
v 0.1 0.5 0.2
v -0.4 0.5 0.1
v -0.3 0.5 0.1
v -0.1 0.5 0.1
v 0 0.5 0.1
v 0.1 0.5 0.1
v 0.3 0.5 0.1
v 0.4 0.5 0.1
v -0.5 0.5 0
v -0.4 0.5 0
v -0.3 0.5 0
v 0.3 0.5 0
v 0.4 0.5 0
v 0.5 0.5 0
v -0.5 0.5 -0.1
v -0.4 0.5 -0.1
v -0.3 0.5 -0.1
v 0.3 0.5 -0.1
v 0.4 0.5 -0.1
v 0.5 0.5 -0.1
v -0.4 0.5 -0.2
v -0.3 0.5 -0.2
v -0.1 0.5 -0.2
v 0.1 0.5 -0.2
v 0.3 0.5 -0.2
v 0.4 0.5 -0.2
v -0.1 0.5 -0.3
v 0.1 0.5 -0.3
v -0.3 0.6 0.1
v -0.2 0.6 0.1
v 0.2 0.6 0.1
v 0.3 0.6 0.1
v -0.4 0.6 0
v -0.3 0.6 0
v -0.2 0.6 0
v 0.2 0.6 0
v 0.3 0.6 0
v 0.4 0.6 0
v -0.4 0.6 -0.1
v -0.3 0.6 -0.1
v -0.2 0.6 -0.1
v 0.2 0.6 -0.1
v 0.3 0.6 -0.1
v 0.4 0.6 -0.1
v -0.3 0.6 -0.2
v -0.2 0.6 -0.2
v 0.2 0.6 -0.2
v 0.3 0.6 -0.2
v -0.3 0.7 0
v -0.2 0.7 0
v 0.2 0.7 0
v 0.3 0.7 0
v -0.3 0.7 -0.1
v -0.2 0.7 -0.1
v 0.2 0.7 -0.1
v 0.3 0.7 -0.1
v -0.4 0.8 0.3
v -0.3 0.8 0.3
v 0.3 0.8 0.3
v 0.4 0.8 0.3
v -0.4 0.8 0.2
v -0.3 0.8 0.2
v 0.3 0.8 0.2
v 0.4 0.8 0.2
v 0 0.9 -0.5
v 0.1 0.9 -0.5
v 0 0.9 -0.6
v 0.1 0.9 -0.6
v -0.3 1 0.3
v -0.2 1 0.3
v 0.2 1 0.3
v 0.3 1 0.3
v -0.4 1 0.2
v -0.3 1 0.2
v -0.2 1 0.2
v 0.2 1 0.2
v 0.3 1 0.2
v 0.4 1 0.2
v -0.2 1 0.1
v -0.1 1 0.1
v -0.2 1 0
v -0.1 1 0
v -0.4 1 -0.3
v -0.3 1 -0.3
v -0.2 1 -0.3
v 0.2 1 -0.3
v 0.3 1 -0.3
v 0.4 1 -0.3
v -0.3 1 -0.4
v -0.2 1 -0.4
v -0.1 1 -0.4
v 0.1 1 -0.4
v 0.2 1 -0.4
v 0.3 1 -0.4
v -0.2 1 -0.5
v -0.1 1 -0.5
v 0.1 1 -0.5
v 0.2 1 -0.5
v -0.2 1.1 0.3
v -0.1 1.1 0.3
v 0.1 1.1 0.3
v 0.2 1.1 0.3
v -0.2 1.1 0.2
v -0.1 1.1 0.2
v 0.1 1.1 0.2
v 0.2 1.1 0.2
v -0.1 1.1 -0.4
v 0.1 1.1 -0.4
v -0.1 1.1 -0.5
v 0.1 1.1 -0.5
v -0.1 1.2 0.3
v 0.1 1.2 0.3
v -0.3 1.2 0.2
v -0.2 1.2 0.2
v -0.1 1.2 0.2
v 0.1 1.2 0.2
v 0.2 1.2 0.2
v 0.3 1.2 0.2
v -0.3 1.2 -0.3
v -0.2 1.2 -0.3
v -0.1 1.2 -0.3
v 0.1 1.2 -0.3
v 0.2 1.2 -0.3
v 0.3 1.2 -0.3
v -0.2 1.2 -0.4
v -0.1 1.2 -0.4
v 0.1 1.2 -0.4
v 0.2 1.2 -0.4
v -0.2 1.3 0.2
v 0.2 1.3 0.2
v -0.1 1.3 0.1
v 0.1 1.3 0.1
v -0.2 1.3 -0.3
v -0.1 1.3 -0.3
v 0.1 1.3 -0.3
v 0.2 1.3 -0.3
v -0.1 1.3 -0.4
v 0.1 1.3 -0.4
v -0.1 1.4 0.1
v 0.1 1.4 0.1
v -0.1 1.4 -0.3
v 0.1 1.4 -0.3

# faces
f 3/6/1 2/6/1 1/6/1
f 4/6/1 2/6/1 3/6/1
f 7/4/1 6/4/1 5/4/1
f 8/4/1 6/4/1 7/4/1
f 11/6/1 10/6/1 9/6/1
f 12/6/1 10/6/1 11/6/1
f 17/6/1 14/6/1 13/6/1
f 18/6/1 14/6/1 17/6/1
f 19/6/1 16/6/1 15/6/1
f 20/6/1 16/6/1 19/6/1
f 21/6/1 19/6/1 18/6/1
f 22/6/1 19/6/1 21/6/1
f 25/6/1 24/6/1 23/6/1
f 26/6/1 24/6/1 25/6/1
f 28/6/1 27/6/1 26/6/1
f 29/6/1 27/6/1 28/6/1
f 34/4/1 31/4/1 30/4/1
f 35/4/1 33/4/1 32/4/1
f 36/4/1 33/4/1 35/4/1
f 37/4/1 34/4/1 30/4/1
f 38/6/1 35/6/1 34/6/1
f 38/4/1 34/4/1 37/4/1
f 38/6/1 36/6/1 35/6/1
f 39/6/1 36/6/1 38/6/1
f 40/6/1 38/6/1 37/6/1
f 41/6/1 38/6/1 40/6/1
f 42/6/1 36/6/1 39/6/1
f 43/6/1 36/6/1 42/6/1
f 49/6/1 45/6/1 44/6/1
f 50/6/1 45/6/1 49/6/1
f 51/6/1 47/6/1 46/6/1
f 52/6/1 47/6/1 51/6/1
f 53/5/1 49/5/1 48/5/1
f 54/5/1 49/5/1 53/5/1
f 55/6/1 51/6/1 50/6/1
f 56/6/1 51/6/1 55/6/1
f 59/5/1 55/5/1 54/5/1
f 59/5/1 54/5/1 53/5/1
f 60/5/1 55/5/1 59/5/1
f 61/5/1 57/5/1 56/5/1
f 62/5/1 57/5/1 61/5/1
f 64/6/1 59/6/1 58/6/1
f 65/6/1 59/6/1 64/6/1
f 66/6/1 63/6/1 62/6/1
f 67/6/1 63/6/1 66/6/1
f 68/6/1 66/6/1 65/6/1
f 69/6/1 66/6/1 68/6/1
f 74/4/1 71/4/1 70/4/1
f 75/4/1 73/4/1 72/4/1
f 76/4/1 75/4/1 72/4/1
f 77/4/1 75/4/1 76/4/1
f 78/4/1 71/4/1 74/4/1
f 79/4/1 71/4/1 78/4/1
f 84/4/1 81/4/1 80/4/1
f 85/4/1 81/4/1 84/4/1
f 86/6/1 83/6/1 82/6/1
f 87/6/1 83/6/1 86/6/1
f 88/1/1 86/1/1 85/1/1
f 89/1/1 86/1/1 88/1/1
f 95/6/1 91/6/1 90/6/1
f 96/6/1 91/6/1 95/6/1
f 97/6/1 93/6/1 92/6/1
f 98/6/1 93/6/1 97/6/1
f 100/6/1 95/6/1 94/6/1
f 101/6/1 95/6/1 100/6/1
f 102/6/1 100/6/1 99/6/1
f 103/6/1 100/6/1 102/6/1
f 108/2/1 105/2/1 104/2/1
f 109/2/1 105/2/1 108/2/1
f 110/2/1 107/2/1 106/2/1
f 111/2/1 107/2/1 110/2/1
f 114/5/1 113/5/1 112/5/1
f 115/5/1 113/5/1 114/5/1
f 122/6/1 117/6/1 116/6/1
f 123/6/1 117/6/1 122/6/1
f 124/6/1 119/6/1 118/6/1
f 125/6/1 119/6/1 124/6/1
f 126/6/1 121/6/1 120/6/1
f 127/6/1 121/6/1 126/6/1
f 131/6/1 129/6/1 128/6/1
f 132/6/1 129/6/1 131/6/1
f 133/6/1 131/6/1 130/6/1
f 134/6/1 131/6/1 133/6/1
f 137/4/1 136/4/1 135/4/1
f 138/4/1 136/4/1 137/4/1
f 141/6/1 140/6/1 139/6/1
f 142/6/1 140/6/1 141/6/1
f 149/4/1 144/4/1 143/4/1
f 150/4/1 144/4/1 149/4/1
f 151/4/1 146/4/1 145/4/1
f 152/4/1 146/4/1 151/4/1
f 153/6/1 150/6/1 149/6/1
f 154/6/1 150/6/1 153/6/1
f 155/4/1 148/4/1 147/4/1
f 156/4/1 148/4/1 155/4/1
f 159/6/1 158/6/1 157/6/1
f 160/6/1 158/6/1 159/6/1
f 164/5/1 162/5/1 161/5/1
f 165/5/1 162/5/1 164/5/1
f 166/5/1 165/5/1 164/5/1
f 167/6/1 164/6/1 163/6/1
f 168/5/1 166/5/1 164/5/1
f 168/6/1 164/6/1 167/6/1
f 169/5/1 166/5/1 168/5/1
f 170/5/2 171/5/2 173/5/2
f 173/5/2 171/5/2 174/5/2
f 172/6/2 173/6/2 175/6/2
f 175/6/2 173/6/2 176/6/2
f 177/6/2 178/6/2 179/6/2
f 179/6/2 178/6/2 180/6/2
f 181/4/2 182/4/2 187/4/2
f 187/4/2 182/4/2 188/4/2
f 185/4/2 186/4/2 189/4/2
f 189/4/2 186/4/2 190/4/2
f 187/6/2 188/6/2 191/6/2
f 191/6/2 188/6/2 192/6/2
f 183/4/2 184/4/2 193/4/2
f 193/4/2 184/4/2 194/4/2
f 195/5/2 196/5/2 197/5/2
f 197/5/2 196/5/2 198/5/2
f 199/6/2 200/6/2 201/6/2
f 201/6/2 200/6/2 202/6/2
f 203/4/2 204/4/2 205/4/2
f 205/4/2 204/4/2 206/4/2
f 207/5/2 208/5/2 209/5/2
f 209/5/2 208/5/2 210/5/2
f 211/2/2 212/2/2 215/2/2
f 215/2/2 212/2/2 216/2/2
f 213/2/2 214/2/2 217/2/2
f 217/2/2 214/2/2 218/2/2
f 219/5/2 220/5/2 221/5/2
f 221/5/2 220/5/2 222/5/2
f 223/6/2 224/6/2 225/6/2
f 225/6/2 224/6/2 226/6/2
f 227/6/2 228/6/2 231/6/2
f 231/6/2 228/6/2 232/6/2
f 229/6/2 230/6/2 233/6/2
f 233/6/2 230/6/2 234/6/2
f 235/6/2 236/6/2 238/6/2
f 238/6/2 236/6/2 239/6/2
f 237/6/2 238/6/2 240/6/2
f 240/6/2 238/6/2 241/6/2
f 242/4/2 243/4/2 246/4/2
f 244/4/2 245/4/2 247/4/2
f 244/4/2 247/4/2 248/4/2
f 248/4/2 247/4/2 249/4/2
f 246/4/2 243/4/2 250/4/2
f 250/4/2 243/4/2 251/4/2
f 252/4/2 253/4/2 256/4/2
f 256/4/2 253/4/2 257/4/2
f 254/6/2 255/6/2 258/6/2
f 258/6/2 255/6/2 259/6/2
f 257/1/2 258/1/2 261/1/2
f 261/1/2 258/1/2 262/1/2
f 259/5/2 260/5/2 263/5/2
f 263/5/2 260/5/2 264/5/2
f 265/6/2 266/6/2 270/6/2
f 270/6/2 266/6/2 271/6/2
f 267/6/2 268/6/2 272/6/2
f 272/6/2 268/6/2 273/6/2
f 269/6/2 270/6/2 275/6/2
f 275/6/2 270/6/2 276/6/2
f 274/6/2 275/6/2 277/6/2
f 277/6/2 275/6/2 278/6/2
f 279/4/2 280/4/2 283/4/2
f 281/4/2 282/4/2 284/4/2
f 284/4/2 282/4/2 285/4/2
f 279/4/2 283/4/2 286/4/2
f 283/6/2 284/6/2 287/6/2
f 286/4/2 283/4/2 287/4/2
f 284/6/2 285/6/2 287/6/2
f 287/6/2 285/6/2 288/6/2
f 286/6/2 287/6/2 289/6/2
f 289/6/2 287/6/2 290/6/2
f 288/6/2 285/6/2 291/6/2
f 291/6/2 285/6/2 292/6/2
f 293/6/2 294/6/2 298/6/2
f 298/6/2 294/6/2 299/6/2
f 295/6/2 296/6/2 300/6/2
f 300/6/2 296/6/2 301/6/2
f 297/5/2 298/5/2 302/5/2
f 302/5/2 298/5/2 303/5/2
f 299/6/2 300/6/2 304/6/2
f 304/6/2 300/6/2 305/6/2
f 302/5/2 303/5/2 308/5/2
f 303/5/2 304/5/2 308/5/2
f 308/5/2 304/5/2 309/5/2
f 305/5/2 306/5/2 310/5/2
f 310/5/2 306/5/2 311/5/2
f 307/6/2 308/6/2 314/6/2
f 314/6/2 308/6/2 315/6/2
f 312/6/2 313/6/2 316/6/2
f 316/6/2 313/6/2 317/6/2
f 315/6/2 316/6/2 318/6/2
f 318/6/2 316/6/2 319/6/2
f 320/4/2 321/4/2 322/4/2
f 322/4/2 321/4/2 323/4/2
f 324/6/2 325/6/2 326/6/2
f 326/6/2 325/6/2 327/6/2
f 328/6/2 329/6/2 332/6/2
f 332/6/2 329/6/2 333/6/2
f 330/6/2 331/6/2 334/6/2
f 334/6/2 331/6/2 335/6/2
f 333/6/2 334/6/2 336/6/2
f 336/6/2 334/6/2 337/6/2
f 338/6/2 339/6/2 340/6/2
f 340/6/2 339/6/2 341/6/2
f 341/6/2 342/6/2 343/6/2
f 343/6/2 342/6/2 344/6/2
f 345/6/2 346/6/2 347/6/2
f 347/6/2 346/6/2 348/6/2
f 351/6/3 350/6/3 349/6/3
f 353/6/3 351/6/3 349/6/3
f 353/6/3 352/6/3 351/6/3
f 354/6/3 352/6/3 353/6/3
f 355/6/3 352/6/3 354/6/3
f 357/6/3 356/6/3 355/6/3
f 357/6/3 355/6/3 354/6/3
f 358/6/3 356/6/3 357/6/3
f 359/6/3 356/6/3 358/6/3
f 362/6/3 360/6/3 359/6/3
f 362/6/3 359/6/3 358/6/3
f 363/6/3 360/6/3 362/6/3
f 364/6/3 360/6/3 363/6/3
f 366/6/3 362/6/3 361/6/3
f 366/6/3 363/6/3 362/6/3
f 367/6/3 363/6/3 366/6/3
f 368/6/3 363/6/3 367/6/3
f 369/6/3 366/6/3 365/6/3
f 369/6/3 367/6/3 366/6/3
f 370/6/3 367/6/3 369/6/3
f 371/6/3 369/6/3 365/6/3
f 372/6/3 369/6/3 371/6/3
f 377/6/3 374/6/3 373/6/3
f 378/6/3 374/6/3 377/6/3
f 382/5/3 376/5/3 375/5/3
f 383/5/3 376/5/3 382/5/3
f 385/6/3 379/6/3 378/6/3
f 386/6/3 379/6/3 385/6/3
f 387/6/3 379/6/3 386/6/3
f 389/4/3 381/4/3 380/4/3
f 390/4/3 381/4/3 389/4/3
f 391/4/3 381/4/3 390/4/3
f 393/5/3 384/5/3 383/5/3
f 394/5/3 384/5/3 393/5/3
f 395/5/3 384/5/3 394/5/3
f 397/6/3 388/6/3 387/6/3
f 397/6/3 387/6/3 386/6/3
f 398/6/3 388/6/3 397/6/3
f 399/4/3 391/4/3 390/4/3
f 400/4/3 391/4/3 399/4/3
f 401/5/3 396/5/3 395/5/3
f 401/5/3 395/5/3 394/5/3
f 402/5/3 396/5/3 401/5/3
f 404/4/3 391/4/3 400/4/3
f 405/2/3 392/2/3 391/2/3
f 405/4/3 391/4/3 404/4/3
f 406/2/3 392/2/3 405/2/3
f 407/5/3 396/5/3 402/5/3
f 408/5/3 396/5/3 407/5/3
f 410/6/3 388/6/3 398/6/3
f 411/4/3 404/4/3 403/4/3
f 411/4/3 405/4/3 404/4/3
f 412/4/3 405/4/3 411/4/3
f 416/6/3 410/6/3 409/6/3
f 417/6/3 388/6/3 410/6/3
f 417/6/3 410/6/3 416/6/3
f 418/6/3 388/6/3 417/6/3
f 419/5/3 414/5/3 413/5/3
f 420/5/3 414/5/3 419/5/3
f 422/6/3 416/6/3 415/6/3
f 422/6/3 417/6/3 416/6/3
f 423/6/3 417/6/3 422/6/3
f 424/6/3 422/6/3 421/6/3
f 425/6/3 422/6/3 424/6/3
f 430/6/3 427/6/3 426/6/3
f 431/6/3 427/6/3 430/6/3
f 433/4/3 429/4/3 428/4/3
f 434/4/3 429/4/3 433/4/3
f 435/6/3 432/6/3 431/6/3
f 435/4/3 429/4/3 434/4/3
f 435/6/3 430/6/3 429/6/3
f 435/6/3 431/6/3 430/6/3
f 436/6/3 432/6/3 435/6/3
f 437/6/3 432/6/3 436/6/3
f 438/6/3 432/6/3 437/6/3
f 440/3/3 434/3/3 433/3/3
f 442/2/3 437/2/3 436/2/3
f 443/4/3 439/4/3 438/4/3
f 443/2/3 437/2/3 442/2/3
f 443/4/3 438/4/3 437/4/3
f 444/4/3 439/4/3 443/4/3
f 445/4/3 439/4/3 444/4/3
f 449/3/3 441/3/3 440/3/3
f 451/6/3 444/6/3 443/6/3
f 452/4/3 445/4/3 444/4/3
f 452/6/3 444/6/3 451/6/3
f 453/1/3 446/1/3 445/1/3
f 453/4/3 445/4/3 452/4/3
f 454/1/3 446/1/3 453/1/3
f 456/3/3 440/3/3 433/3/3
f 456/3/3 450/3/3 449/3/3
f 456/3/3 449/3/3 440/3/3
f 457/3/3 450/3/3 456/3/3
f 459/4/3 452/4/3 451/4/3
f 460/6/3 453/6/3 452/6/3
f 460/4/3 452/4/3 459/4/3
f 461/1/3 455/1/3 454/1/3
f 461/6/3 453/6/3 460/6/3
f 461/1/3 454/1/3 453/1/3
f 462/1/3 455/1/3 461/1/3
f 463/1/3 455/1/3 462/1/3
f 464/6/3 448/6/3 447/6/3
f 465/6/3 448/6/3 464/6/3
f 466/3/3 456/3/3 433/3/3
f 467/3/3 456/3/3 466/3/3
f 469/2/3 459/2/3 458/2/3
f 470/4/3 460/4/3 459/4/3
f 470/4/3 461/4/3 460/4/3
f 470/2/3 459/2/3 469/2/3
f 471/4/3 461/4/3 470/4/3
f 472/1/3 462/1/3 461/1/3
f 472/4/3 461/4/3 471/4/3
f 473/5/3 463/5/3 462/5/3
f 473/1/3 462/1/3 472/1/3
f 474/5/3 463/5/3 473/5/3
f 475/4/3 468/4/3 467/4/3
f 475/4/3 467/4/3 466/4/3
f 476/6/3 469/6/3 468/6/3
f 476/4/3 468/4/3 475/4/3
f 476/6/3 470/6/3 469/6/3
f 476/6/3 471/6/3 470/6/3
f 477/6/3 471/6/3 476/6/3
f 478/6/3 471/6/3 477/6/3
f 479/6/3 471/6/3 478/6/3
f 480/6/3 478/6/3 477/6/3
f 481/6/3 478/6/3 480/6/3
f 487/6/3 483/6/3 482/6/3
f 488/6/3 483/6/3 487/6/3
f 489/6/3 483/6/3 488/6/3
f 491/4/3 485/4/3 484/4/3
f 492/4/3 485/4/3 491/4/3
f 493/6/3 487/6/3 486/6/3
f 493/6/3 488/6/3 487/6/3
f 494/6/3 488/6/3 493/6/3
f 495/6/3 490/6/3 489/6/3
f 496/6/3 490/6/3 495/6/3
f 498/6/3 497/6/3 496/6/3
f 499/6/3 497/6/3 498/6/3
f 502/6/3 501/6/3 500/6/3
f 503/6/3 501/6/3 502/6/3
f 511/6/3 505/6/3 504/6/3
f 512/6/3 505/6/3 511/6/3
f 513/4/3 507/4/3 506/4/3
f 514/4/3 507/4/3 513/4/3
f 515/6/3 509/6/3 508/6/3
f 516/6/3 509/6/3 515/6/3
f 517/6/3 509/6/3 516/6/3
f 518/6/3 511/6/3 510/6/3
f 519/6/3 511/6/3 518/6/3
f 520/6/3 517/6/3 516/6/3
f 520/6/3 518/6/3 517/6/3
f 521/6/3 518/6/3 520/6/3
f 524/5/3 523/5/3 522/5/3
f 525/5/3 523/5/3 524/5/3
f 529/3/3 527/3/3 526/3/3
f 529/3/3 528/3/3 527/3/3
f 530/3/3 528/3/3 529/3/3
f 531/3/3 528/3/3 530/3/3
f 534/5/3 533/5/3 532/5/3
f 535/5/3 533/5/3 534/5/3
f 536/6/4 537/6/4 538/6/4
f 538/6/4 537/6/4 539/6/4
f 540/6/4 541/6/4 542/6/4
f 542/6/4 541/6/4 543/6/4
f 544/5/4 545/5/4 546/5/4
f 546/5/4 545/5/4 547/5/4
f 548/6/4 549/6/4 550/6/4
f 550/6/4 549/6/4 551/6/4
f 552/5/4 553/5/4 554/5/4
f 554/5/4 553/5/4 555/5/4
f 556/5/4 557/5/4 558/5/4
f 558/5/4 557/5/4 559/5/4
f 560/3/4 561/3/4 563/3/4
f 561/3/4 562/3/4 563/3/4
f 563/3/4 562/3/4 564/3/4
f 564/3/4 562/3/4 565/3/4
f 566/5/4 567/5/4 568/5/4
f 568/5/4 567/5/4 569/5/4
f 570/6/4 571/6/4 575/6/4
f 575/6/4 571/6/4 576/6/4
f 576/6/4 571/6/4 577/6/4
f 572/4/4 573/4/4 579/4/4
f 579/4/4 573/4/4 580/4/4
f 574/6/4 575/6/4 581/6/4
f 575/6/4 576/6/4 581/6/4
f 581/6/4 576/6/4 582/6/4
f 577/6/4 578/6/4 583/6/4
f 583/6/4 578/6/4 584/6/4
f 584/6/4 585/6/4 586/6/4
f 586/6/4 585/6/4 587/6/4
f 588/6/4 589/6/4 595/6/4
f 595/6/4 589/6/4 596/6/4
f 590/4/4 591/4/4 597/4/4
f 597/4/4 591/4/4 598/4/4
f 592/6/4 593/6/4 599/6/4
f 599/6/4 593/6/4 600/6/4
f 600/6/4 593/6/4 601/6/4
f 594/6/4 595/6/4 602/6/4
f 602/6/4 595/6/4 603/6/4
f 600/6/4 601/6/4 604/6/4
f 601/6/4 602/6/4 604/6/4
f 604/6/4 602/6/4 605/6/4
f 606/6/4 607/6/4 610/6/4
f 610/6/4 607/6/4 611/6/4
f 608/4/4 609/4/4 613/4/4
f 611/6/4 612/6/4 614/6/4
f 613/4/4 609/4/4 614/4/4
f 609/6/4 610/6/4 614/6/4
f 610/6/4 611/6/4 614/6/4
f 614/6/4 612/6/4 615/6/4
f 615/6/4 612/6/4 616/6/4
f 616/6/4 612/6/4 617/6/4
f 615/2/4 616/2/4 621/2/4
f 616/4/4 617/4/4 622/4/4
f 621/2/4 616/2/4 622/2/4
f 617/6/4 618/6/4 623/6/4
f 622/4/4 617/4/4 623/4/4
f 623/6/4 618/6/4 624/6/4
f 619/3/4 620/3/4 625/3/4
f 625/3/4 620/3/4 626/3/4
f 619/3/4 625/3/4 627/3/4
f 627/3/4 625/3/4 628/3/4
f 622/4/4 623/4/4 630/4/4
f 630/4/4 623/4/4 631/4/4
f 629/2/4 630/2/4 635/2/4
f 630/4/4 631/4/4 636/4/4
f 635/2/4 630/2/4 636/2/4
f 631/6/4 632/6/4 637/6/4
f 636/4/4 631/4/4 637/4/4
f 637/6/4 632/6/4 638/6/4
f 633/4/4 634/4/4 640/4/4
f 635/6/4 636/6/4 641/6/4
f 640/4/4 634/4/4 641/4/4
f 636/6/4 637/6/4 641/6/4
f 634/6/4 635/6/4 641/6/4
f 641/6/4 637/6/4 642/6/4
f 642/6/4 637/6/4 643/6/4
f 643/6/4 637/6/4 644/6/4
f 638/5/4 639/5/4 645/5/4
f 645/5/4 639/5/4 646/5/4
f 642/6/4 643/6/4 647/6/4
f 647/6/4 643/6/4 648/6/4
f 649/6/4 650/6/4 652/6/4
f 652/6/4 650/6/4 653/6/4
f 653/6/4 654/6/4 657/6/4
f 657/6/4 654/6/4 658/6/4
f 655/4/4 656/4/4 660/4/4
f 660/4/4 656/4/4 661/4/4
f 661/4/4 656/4/4 662/4/4
f 651/5/4 652/5/4 665/5/4
f 658/6/4 659/6/4 666/6/4
f 666/6/4 659/6/4 667/6/4
f 661/4/4 662/4/4 670/4/4
f 669/4/4 670/4/4 672/4/4
f 662/2/4 663/2/4 673/2/4
f 670/4/4 662/4/4 673/4/4
f 672/4/4 670/4/4 673/4/4
f 673/2/4 663/2/4 674/2/4
f 664/5/4 665/5/4 675/5/4
f 665/5/4 652/5/4 676/5/4
f 675/5/4 665/5/4 676/5/4
f 667/6/4 668/6/4 678/6/4
f 678/6/4 668/6/4 679/6/4
f 671/4/4 672/4/4 680/4/4
f 672/4/4 673/4/4 680/4/4
f 680/4/4 673/4/4 681/4/4
f 676/5/4 652/5/4 682/5/4
f 682/5/4 652/5/4 683/5/4
f 677/6/4 678/6/4 685/6/4
f 685/6/4 678/6/4 686/6/4
f 684/6/4 685/6/4 688/6/4
f 688/6/4 685/6/4 689/6/4
f 687/6/4 688/6/4 690/6/4
f 690/6/4 688/6/4 691/6/4
f 692/6/4 693/6/4 694/6/4
f 694/6/4 693/6/4 695/6/4
f 695/6/4 696/6/4 697/6/4
f 697/6/4 696/6/4 698/6/4
f 698/6/4 696/6/4 699/6/4
f 699/6/4 700/6/4 702/6/4
f 698/6/4 699/6/4 702/6/4
f 702/6/4 700/6/4 703/6/4
f 703/6/4 700/6/4 704/6/4
f 701/6/4 702/6/4 706/6/4
f 702/6/4 703/6/4 706/6/4
f 706/6/4 703/6/4 707/6/4
f 705/6/4 706/6/4 708/6/4
f 708/6/4 706/6/4 709/6/4
f 710/6/4 711/6/4 712/6/4
f 710/6/4 712/6/4 714/6/4
f 712/6/4 713/6/4 714/6/4
f 714/6/4 713/6/4 715/6/4
f 715/6/4 713/6/4 717/6/4
f 717/6/4 713/6/4 718/6/4
f 718/6/4 713/6/4 719/6/4
f 716/6/4 717/6/4 720/6/4
f 717/6/4 718/6/4 720/6/4
f 720/6/4 718/6/4 721/6/4
f 722/6/4 723/6/4 724/6/4
f 724/6/4 723/6/4 725/6/4
f 731/4/5 727/4/5 726/4/5
f 732/3/5 728/3/5 727/3/5
f 732/4/5 727/4/5 731/4/5
f 733/3/5 728/3/5 732/3/5
f 734/3/5 728/3/5 733/3/5
f 735/4/5 729/4/5 728/4/5
f 735/3/5 728/3/5 734/3/5
f 736/4/5 729/4/5 735/4/5
f 738/4/5 731/4/5 730/4/5
f 739/3/5 732/3/5 731/3/5
f 739/4/5 731/4/5 738/4/5
f 740/4/5 733/4/5 732/4/5
f 740/3/5 732/3/5 739/3/5
f 741/4/5 733/4/5 740/4/5
f 742/4/5 735/4/5 734/4/5
f 743/3/5 736/3/5 735/3/5
f 743/4/5 735/4/5 742/4/5
f 744/4/5 737/4/5 736/4/5
f 744/3/5 736/3/5 743/3/5
f 745/4/5 737/4/5 744/4/5
f 746/4/5 740/4/5 739/4/5
f 747/3/5 743/3/5 742/3/5
f 747/4/5 740/4/5 746/4/5
f 747/3/5 742/3/5 741/3/5
f 747/3/5 741/3/5 740/3/5
f 748/3/5 743/3/5 747/3/5
f 749/3/5 743/3/5 748/3/5
f 750/4/5 744/4/5 743/4/5
f 750/3/5 743/3/5 749/3/5
f 751/4/5 744/4/5 750/4/5
f 752/4/5 748/4/5 747/4/5
f 753/4/5 748/4/5 752/4/5
f 754/4/5 750/4/5 749/4/5
f 755/4/5 750/4/5 754/4/5
f 760/4/5 757/4/5 756/4/5
f 761/4/5 757/4/5 760/4/5
f 762/4/5 759/4/5 758/4/5
f 763/4/5 759/4/5 762/4/5
f 766/4/5 765/4/5 764/4/5
f 767/4/5 765/4/5 766/4/5
f 770/4/5 769/4/5 768/4/5
f 771/4/5 769/4/5 770/4/5
f 778/6/5 773/6/5 772/6/5
f 779/6/5 773/6/5 778/6/5
f 780/3/5 775/3/5 774/3/5
f 781/3/5 775/3/5 780/3/5
f 782/6/5 777/6/5 776/6/5
f 783/6/5 777/6/5 782/6/5
f 786/4/5 785/4/5 784/4/5
f 787/4/5 785/4/5 786/4/5
f 790/4/5 789/4/5 788/4/5
f 791/4/5 789/4/5 790/4/5
f 796/6/5 793/6/5 792/6/5
f 797/6/5 793/6/5 796/6/5
f 798/6/5 795/6/5 794/6/5
f 799/6/5 795/6/5 798/6/5
f 804/6/5 801/6/5 800/6/5
f 805/6/5 801/6/5 804/6/5
f 806/6/5 803/6/5 802/6/5
f 807/6/5 803/6/5 806/6/5
f 812/6/5 809/6/5 808/6/5
f 813/6/5 809/6/5 812/6/5
f 814/6/5 811/6/5 810/6/5
f 815/6/5 811/6/5 814/6/5
f 820/5/5 817/5/5 816/5/5
f 821/5/5 817/5/5 820/5/5
f 822/5/5 819/5/5 818/5/5
f 823/5/5 819/5/5 822/5/5
f 826/5/5 825/5/5 824/5/5
f 827/5/5 825/5/5 826/5/5
f 832/6/5 829/6/5 828/6/5
f 833/6/5 829/6/5 832/6/5
f 834/6/5 829/6/5 833/6/5
f 836/6/5 831/6/5 830/6/5
f 837/6/5 831/6/5 836/6/5
f 838/6/5 831/6/5 837/6/5
f 840/5/5 835/5/5 834/5/5
f 841/5/5 835/5/5 840/5/5
f 844/5/5 840/5/5 839/5/5
f 845/5/5 840/5/5 844/5/5
f 846/5/5 843/5/5 842/5/5
f 847/5/5 843/5/5 846/5/5
f 852/5/5 849/5/5 848/5/5
f 855/5/5 851/5/5 850/5/5
f 856/5/5 851/5/5 855/5/5
f 857/5/5 853/5/5 852/5/5
f 857/5/5 852/5/5 848/5/5
f 858/5/5 853/5/5 857/5/5
f 859/5/5 855/5/5 854/5/5
f 860/5/5 855/5/5 859/5/5
f 867/5/5 864/5/5 863/5/5
f 868/5/5 864/5/5 867/5/5
f 869/6/5 862/6/5 861/6/5
f 872/6/5 866/6/5 865/6/5
f 873/6/5 870/6/5 869/6/5
f 873/6/5 869/6/5 861/6/5
f 874/6/5 870/6/5 873/6/5
f 875/6/5 872/6/5 871/6/5
f 876/6/5 866/6/5 872/6/5
f 876/6/5 872/6/5 875/6/5
f 878/6/5 866/6/5 876/6/5
f 879/6/5 873/6/5 861/6/5
f 880/6/5 873/6/5 879/6/5
f 881/6/5 878/6/5 877/6/5
f 882/6/5 866/6/5 878/6/5
f 882/6/5 878/6/5 881/6/5
f 883/6/5 866/6/5 882/6/5
f 884/6/5 881/6/5 880/6/5
f 884/6/5 882/6/5 881/6/5
f 885/6/5 882/6/5 884/6/5
f 886/6/5 882/6/5 885/6/5
f 887/6/5 882/6/5 886/6/5
f 888/6/5 886/6/5 885/6/5
f 889/6/5 886/6/5 888/6/5
f 890/6/5 886/6/5 889/6/5
f 891/6/5 886/6/5 890/6/5
f 892/6/5 890/6/5 889/6/5
f 893/6/5 890/6/5 892/6/5
f 898/6/5 895/6/5 894/6/5
f 899/6/5 895/6/5 898/6/5
f 901/6/5 897/6/5 896/6/5
f 902/6/5 897/6/5 901/6/5
f 903/5/5 901/5/5 900/5/5
f 903/5/5 902/5/5 901/5/5
f 904/5/5 902/5/5 903/5/5
f 905/5/5 902/5/5 904/5/5
f 908/6/5 907/6/5 906/6/5
f 909/6/5 907/6/5 908/6/5
f 912/6/5 911/6/5 910/6/5
f 913/6/5 911/6/5 912/6/5
f 914/4/6 915/4/6 918/4/6
f 918/4/6 915/4/6 919/4/6
f 916/4/6 917/4/6 920/4/6
f 920/4/6 917/4/6 921/4/6
f 922/4/6 923/4/6 926/4/6
f 926/4/6 923/4/6 927/4/6
f 924/4/6 925/4/6 928/4/6
f 928/4/6 925/4/6 929/4/6
f 930/4/6 931/4/6 934/4/6
f 934/4/6 931/4/6 935/4/6
f 932/4/6 933/4/6 936/4/6
f 936/4/6 933/4/6 937/4/6
f 938/2/6 939/2/6 942/2/6
f 942/2/6 939/2/6 943/2/6
f 943/2/6 939/2/6 944/2/6
f 940/6/6 941/6/6 948/6/6
f 948/6/6 941/6/6 949/6/6
f 945/6/6 946/6/6 950/6/6
f 950/6/6 946/6/6 951/6/6
f 947/6/6 948/6/6 953/6/6
f 953/6/6 948/6/6 954/6/6
f 951/6/6 952/6/6 957/6/6
f 957/6/6 952/6/6 958/6/6
f 954/6/6 955/6/6 959/6/6
f 959/6/6 955/6/6 960/6/6
f 956/6/6 957/6/6 963/6/6
f 963/6/6 957/6/6 964/6/6
f 961/2/6 962/2/6 965/2/6
f 965/2/6 962/2/6 966/2/6
f 967/6/6 968/6/6 972/6/6
f 972/6/6 968/6/6 973/6/6
f 969/6/6 970/6/6 974/6/6
f 974/6/6 970/6/6 975/6/6
f 971/6/6 972/6/6 977/6/6
f 977/6/6 972/6/6 978/6/6
f 975/6/6 976/6/6 981/6/6
f 981/6/6 976/6/6 982/6/6
f 978/6/6 979/6/6 983/6/6
f 983/6/6 979/6/6 984/6/6
f 980/6/6 981/6/6 985/6/6
f 985/6/6 981/6/6 986/6/6
f 987/6/6 988/6/6 991/6/6
f 991/6/6 988/6/6 992/6/6
f 989/6/6 990/6/6 993/6/6
f 993/6/6 990/6/6 994/6/6
f 995/6/6 996/6/6 999/6/6
f 999/6/6 996/6/6 1000/6/6
f 997/6/6 998/6/6 1001/6/6
f 1001/6/6 998/6/6 1002/6/6
f 1003/6/6 1004/6/6 1005/6/6
f 1005/6/6 1004/6/6 1006/6/6
f 1007/6/6 1008/6/6 1012/6/6
f 1012/6/6 1008/6/6 1013/6/6
f 1009/6/6 1010/6/6 1014/6/6
f 1014/6/6 1010/6/6 1015/6/6
f 1017/6/6 1018/6/6 1019/6/6
f 1019/6/6 1018/6/6 1020/6/6
f 1011/6/6 1012/6/6 1021/6/6
f 1021/6/6 1012/6/6 1022/6/6
f 1015/6/6 1016/6/6 1025/6/6
f 1025/6/6 1016/6/6 1026/6/6
f 1022/6/6 1023/6/6 1027/6/6
f 1027/6/6 1023/6/6 1028/6/6
f 1024/6/6 1025/6/6 1031/6/6
f 1031/6/6 1025/6/6 1032/6/6
f 1028/6/6 1029/6/6 1033/6/6
f 1033/6/6 1029/6/6 1034/6/6
f 1030/6/6 1031/6/6 1035/6/6
f 1035/6/6 1031/6/6 1036/6/6
f 1037/6/6 1038/6/6 1041/6/6
f 1041/6/6 1038/6/6 1042/6/6
f 1039/6/6 1040/6/6 1043/6/6
f 1043/6/6 1040/6/6 1044/6/6
f 1045/6/6 1046/6/6 1047/6/6
f 1047/6/6 1046/6/6 1048/6/6
f 1049/6/6 1050/6/6 1053/6/6
f 1053/6/6 1050/6/6 1054/6/6
f 1051/6/6 1052/6/6 1057/6/6
f 1057/6/6 1052/6/6 1058/6/6
f 1055/6/6 1056/6/6 1061/6/6
f 1061/6/6 1056/6/6 1062/6/6
f 1058/6/6 1059/6/6 1063/6/6
f 1063/6/6 1059/6/6 1064/6/6
f 1060/6/6 1061/6/6 1065/6/6
f 1065/6/6 1061/6/6 1066/6/6
f 1067/6/6 1068/6/6 1069/6/6
f 1069/6/6 1068/6/6 1070/6/6
f 1067/6/6 1069/6/6 1071/6/6
f 1071/6/6 1069/6/6 1072/6/6
f 1070/6/6 1068/6/6 1073/6/6
f 1073/6/6 1068/6/6 1074/6/6
f 1072/6/6 1073/6/6 1075/6/6
f 1075/6/6 1073/6/6 1076/6/6
f 1077/6/6 1078/6/6 1079/6/6
f 1079/6/6 1078/6/6 1080/6/6
